<?xml version="1.0" encoding="UTF-8" standalone="no"?><!DOCTYPE svg PUBLIC "-//W3C//DTD SVG 1.1//EN" "http://www.w3.org/Graphics/SVG/1.1/DTD/svg11.dtd"><svg width="100%" height="100%" viewBox="0 0 8001 1513" version="1.1" xmlns="http://www.w3.org/2000/svg" xmlns:xlink="http://www.w3.org/1999/xlink" xml:space="preserve" xmlns:serif="http://www.serif.com/" style="fill-rule:evenodd;clip-rule:evenodd;"><g id="prefix__레이어_2" opacity="0.3"><path id="prefix__패스_2347" d="M3349.85,770.704c-8.879,-40.725 -178.458,-37.792 -378.662,6.271c-85.028,17.764 -168.221,43.394 -248.505,76.558c-28.183,-18 -78.925,-32.083 -137.57,-35.92c-38.203,-3.134 -76.661,-0.387 -114.03,8.145c-38.795,-28.557 -82.743,-49.355 -129.425,-61.25c-104.337,-28.75 -198.495,-17.429 -210.304,25.329c-11.808,42.759 63.205,100.755 167.546,129.584c81.45,22.4 156.221,20.446 191.084,-1.629c28.497,7.98 57.772,12.87 87.316,14.583c16.076,1.103 32.2,1.32 48.3,0.65c16.942,37.221 182.692,33.475 377.604,-9.367c200.525,-43.404 355.85,-112.391 346.646,-152.954Z" style="fill:#a1bfa7;fill-rule:nonzero;"/><path id="prefix__패스_2348" d="M396.746,1049.75c-152.396,17.104 -308.129,-34.292 -337.775,-81.45c-20.425,-2.989 -40.082,-6.519 -58.971,-10.592l0,-178.05c38.142,0.35 76.225,3.071 114.029,8.146c80.304,10.843 157.144,39.63 224.804,84.221l42.192,-4.725c116.717,-12.787 219.917,-4.071 273.021,19.55c23.133,10.183 36.817,23.213 38.121,38.525c4.396,50.496 -127.796,106.292 -295.421,124.375Z" style="fill:#a1bfa7;fill-rule:nonzero;"/><path id="prefix__패스_2349" d="M1236.17,862.55l-243.292,194.829l-276.12,54.896l-425.905,124.704l-290.858,39.992l0,-427.208c58.725,12.87 108.75,49.441 146.042,101.666c4.166,5.863 8.958,12.463 16.291,13.604c3.57,0.308 7.166,-0.079 10.588,-1.141c79.144,-17.582 161.884,9.228 215.679,69.883c33.884,-31.491 72.327,-57.688 114.029,-77.704c42.271,-18.654 90.417,-26.879 135.209,-15.558c-1.865,-20.214 3.955,-40.405 16.291,-56.526c9.718,-13.357 22.666,-24.035 37.629,-31.033c33.234,-15.396 72.654,-12.787 107.025,0c-15.72,-29.483 -2.116,-66.462 17.755,-93.333c31.604,-42.6 84.383,-74.121 136.591,-64.429l77.288,-24.459l205.758,191.817Z" style="fill:#abceb3;fill-rule:nonzero;"/><path id="prefix__패스_2350" d="M7998.86,684.179c-11.729,-34.696 -111.179,-44.166 -222.195,-21.012c-36.071,7.244 -71.306,18.161 -105.155,32.579c-16.85,-6.589 -34.032,-12.299 -51.475,-17.104c-102.221,-28.263 -197.354,-23.704 -212.587,10.183c-15.233,33.888 55,84.3 157.446,112.4c96.354,26.633 186.441,24.433 209.166,-4.725c15.101,-2.011 30.125,-4.565 45.042,-7.658c111.017,-22.967 191.488,-69.884 179.758,-104.663Z" style="fill:#a1bfa7;fill-rule:nonzero;"/><path id="prefix__패스_2351" d="M5712.79,699.475c-9.855,-19.058 -62.471,-23.212 -117.534,-9.367c-16.691,4.041 -32.868,9.971 -48.216,17.675c-19.776,-7.229 -40.485,-11.59 -61.496,-12.95c-21.279,-1.773 -42.694,-0.953 -63.775,2.442c-18.177,-13.658 -39.595,-22.36 -62.146,-25.25c-53.596,-9.042 -107.5,3.992 -120.467,29.167c-12.966,25.175 19.954,52.779 73.304,61.821c37.225,6.27 79.167,30.299 102.871,18.57c14.825,4.967 25.9,-2.279 46.509,-0.65c23.133,1.875 47.891,-16.779 66.137,-19.954c21.504,8.633 71.667,22.238 113.054,11.808c55.221,-13.854 81.696,-54.329 71.759,-73.312Z" style="fill:#a1bfa7;fill-rule:nonzero;"/><path id="prefix__패스_2352" d="M2250.25,825.717c46.667,-18.98 106.617,-8.146 149.704,14.662c27.288,14.584 51.559,37.875 45.613,62.638c30.657,-18.386 66.234,-26.917 101.895,-24.434c36.409,3.334 71.026,23.213 78.276,50.175c41.413,-18.948 86.488,-28.57 132.029,-28.183c46.852,0.899 93.274,9.144 137.57,24.433c31.034,-54.896 101.163,-81.937 180.417,-86.746c3.533,-0.039 7.041,-0.588 10.417,-1.629c5.435,-2.655 9.474,-7.525 11.079,-13.358c25.983,-61.171 172.592,-110.692 255.267,-126.9l-4.559,323.196l-300.958,41.212l-443.987,8.959l-279.375,24.433l-291.43,-83.4l136.917,-184.975l81.125,-0.083Z" style="fill:#abceb3;fill-rule:nonzero;"/><path id="prefix__패스_2353" d="M5071.35,634.471c46.667,-25.25 106.538,-11.404 149.708,19.467c27.205,19.466 51.475,50.416 45.613,83.404c28.833,-22.563 65.566,-37.142 101.896,-32.579c36.329,4.562 70.941,30.87 78.191,66.787c39.259,-24.433 87.559,-31.442 133.579,-26.633c45.88,6.208 90.555,19.335 132.501,38.933c32.576,-74.209 103.06,-125.105 183.749,-132.683c3.609,-0.002 7.181,-0.722 10.509,-2.117c5.857,-4.29 9.83,-10.686 11.079,-17.838c27.311,-82.575 94.383,-146.117 178.313,-168.929l72.408,430.304l-300.963,54.817l-443.904,11.975l-279.375,32.579l-291.346,-110.775l136.917,-246.633l81.125,-0.079Z" style="fill:#abceb3;fill-rule:nonzero;"/><path id="prefix__패스_2354" d="M8000,621.046l0,390.962l-575.121,15.559l-382.329,44.308l-399.108,-151.742l187.337,-336.946l111.1,0c63.858,-34.616 145.879,-15.637 204.929,26.555c37.225,26.716 70.454,69.166 62.392,114.029c39.421,-30.871 89.583,-50.833 139.525,-44.796c49.942,6.038 97.083,42.354 107.025,91.471c53.596,-33.558 119.813,-43.088 182.692,-36.408c62.879,6.679 123.333,28.183 181.391,53.187c34.343,-77.979 99.669,-138.226 180.167,-166.158l0,-0.021Z" style="fill:#abceb3;fill-rule:nonzero;"/><path id="prefix__패스_2355" d="M3436.9,444.296l0,8.146c-150.437,-22.725 -202.083,14.166 -202.083,14.166l-0,-8.141c-0,-0 51.646,-36.896 202.083,-14.171Z" style="fill:#f4c0b5;fill-rule:nonzero;"/><path id="prefix__패스_2356" d="M3436.9,444.296l0,8.146c-150.437,-22.725 -202.083,14.166 -202.083,14.166l-0,-8.141c-0,-0 51.646,-36.896 202.083,-14.171Z" style="fill:#8399aa;fill-rule:nonzero;"/><path id="prefix__패스_2357" d="M7542.57,521.45l0,247.283c0,0 -23.458,-25.329 -224.071,-25.329l0,-259.908l87.967,-10.1l106.621,26.062l29.483,21.992Z" style="fill:#f4c0b5;fill-rule:nonzero;"/><path id="prefix__패스_2358" d="M7358.25,575.404l61.496,3.421l83.975,9.612l28.917,8.471l9.937,16.046l0,55.792l-98.717,-14.904l-41.066,-11.08l-33.234,-4.966l-11.32,-22.154l0.012,-40.238Z" style="fill:#9fb0c4;fill-rule:nonzero;"/><path id="prefix__패스_2359" d="M7365.66,798.492c-0.001,-0 178.458,4.166 178.458,-15.234c-0,-19.4 -66.138,-29.079 -66.138,-29.079l-78.108,-12.458l-36.667,-0l2.442,57.017" style="fill:#c8cacc;fill-rule:nonzero;"/><path id="prefix__패스_2360" d="M6039.89,746.304l-0,94.584l1294,15.962l-0.65,-115.171l-23.538,-13.112l-114.929,-14.417l-326.762,-26.654l-319.204,6.758l-302.671,10.834l-206.25,41.212" style="fill:#c8cacc;fill-rule:nonzero;"/><path id="prefix__패스_2361" d="M5328.59,945.675l-0,-426.054c-0,-0 -26.309,-33.334 -202.084,-17.917l0,426.146c174.796,-15.313 201.759,17.513 202.084,17.825Z" style="fill:#f4c0b5;fill-rule:nonzero;"/><path id="prefix__패스_2362" d="M5328.59,577.758l-0,68.65c-2.803,-2.728 -6.089,-4.91 -9.692,-6.433l-4.233,-1.875c-14.756,-5.509 -30.176,-9.043 -45.859,-10.508l-4.237,-0.488c-45.958,-3.955 -92.189,-3.491 -138.058,1.388l-0,-68.65c45.869,-4.877 92.1,-5.34 138.058,-1.384l4.233,0.488c15.683,1.466 31.103,4.999 45.859,10.508l4.233,1.954c3.626,1.442 6.923,3.604 9.691,6.355l0.005,-0.005Z" style="fill:#c1cdd6;fill-rule:nonzero;"/><path id="prefix__패스_2363" d="M5126.51,680.904l-0,68.663c175.77,-15.396 202.083,17.916 202.083,17.916l-0,-68.658c-0,0 -26.313,-33.313 -202.083,-17.921Z" style="fill:#c1cdd6;fill-rule:nonzero;"/><path id="prefix__패스_2364" d="M5122.3,801.908l0,68.663c175.771,-15.313 206.313,16.291 206.313,16.291l-0,-68.666c-0,-0 -30.542,-31.684 -206.313,-16.288Z" style="fill:#c1cdd6;fill-rule:nonzero;"/><path id="prefix__패스_2365" d="M5124.72,923.138l-0,68.583l-0,-68.583Z" style="fill:#8c8c8c;fill-rule:nonzero;"/><path id="prefix__패스_2366" d="M5852.38,66.871l24.925,49.683l65.73,27.125l272.779,-20.037l191.571,-0l153.616,-18.409l17.104,55.063l16.292,7.737l23.458,-63.204l11.817,-54.812l-99.462,-3.917l-489.584,0l-188.246,20.771" style="fill:#70615c;fill-rule:nonzero;"/><path id="prefix__패스_2367" d="M6643.1,39.746l0,-28.913l-414.258,-10.833l-411.488,19.875l0,30.125l410.754,-20.525l415,10.262" style="fill-rule:nonzero;"/><path id="prefix__패스_2368" d="M5877.22,142.129l-59.867,-92.121l410.754,-20.525l415,10.263l-52.383,177.987l0,-57.5l26.146,-103.279l-388.75,-6.925l-375.833,16.859l24.924,35.512l0,39.746" style="fill:#7f6f69;fill-rule:nonzero;"/><path id="prefix__패스_2369" d="M6059.9,145.879l-0,-71.758l342.083,-0l0,79.496l-136.837,14.416l-179.842,-7.737l-25.417,-14.417" style="fill:#9fb0c4;fill-rule:nonzero;"/><path id="prefix__패스_2370" d="M6371.72,78.275l-0,81.938l104.825,21.666l50,0l-3.667,-70.129l-3.408,-31.017l-147.75,-2.458Z" style="fill:#e5dbda;fill-rule:nonzero;"/><path id="prefix__패스_2371" d="M5921.24,89.108l144.166,0l0,59.05l-36.146,40.321l-73.487,0l-40.971,-3.583l-5.375,-40.954l11.808,-54.817" style="fill:#e5dbda;fill-rule:nonzero;"/><rect id="prefix__사각형_1225" x="5887.61" y="71.188" width="35.675" height="97.088" style="fill:#f9f0ef;fill-rule:nonzero;"/><rect id="prefix__사각형_1226" x="6099.91" y="63.204" width="35.675" height="97.088" style="fill:#f9f0ef;fill-rule:nonzero;"/><rect id="prefix__사각형_1227" x="6329.5" y="63.204" width="35.675" height="97.088" style="fill:#f9f0ef;fill-rule:nonzero;"/><rect id="prefix__사각형_1228" x="6519.48" y="63.204" width="35.675" height="97.088" style="fill:#f9f0ef;fill-rule:nonzero;"/><path id="prefix__패스_2372" d="M5870.36,284.75l-0,-117.287l721,-7.25l-0,114.845l-367.426,28.509l-242.149,-0l-111.425,-18.817" style="fill:#ffd8d2;fill-rule:nonzero;"/><path id="prefix__패스_2373" d="M5973.65,281.004l0,-121.117l243.946,-40.154l0,25.25l23.054,0l0,-25.25l247.121,29.65l0,114.438l-252.333,27.125l-96.455,12.621l-165.333,-22.563" style="fill:#f9f0ef;fill-rule:nonzero;"/><path id="prefix__패스_2374" d="M5833.36,432.846l24.999,27.125l172.351,15.15l29.816,-49.929l-18.487,-30.709l-208.679,38.363" style="fill:#afafaf;fill-rule:nonzero;"/><path id="prefix__패스_2375" d="M6219.98,264.125l0,468.829l1004.61,13.846l-0,-464.267c-0,0 -866.146,-35.35 -1004.61,-18.408Z" style="fill:#c1cdd6;fill-rule:nonzero;"/><path id="prefix__패스_2376" d="M3234.83,998.196l0,-536.588c0,0 51.638,-36.896 202.083,-14.166l0,532.429l-81.45,45.125l-120.633,-26.8Z" style="fill:#f4c0b5;fill-rule:nonzero;"/><path id="prefix__패스_2377" d="M3436.9,503.508l0,68.663c-15.915,-1.397 -31.855,-2.483 -47.813,-3.259l-3.908,-0.245c-24.433,-0.979 -44.633,-0.834 -61.821,-0l-4.233,-0c-16.788,0.857 -33.483,3.036 -49.929,6.516l-4.234,1.059c-24.433,6.191 -29.891,13.437 -29.891,13.437l-0,-68.575c-0,0 5.783,-7.329 29.891,-13.437l2.117,-0.571l2.117,-0.488c16.432,-3.561 33.133,-5.741 49.929,-6.516l4.233,-0c17.188,-0.896 37.629,-1.059 61.821,-0l4.238,-0c14.254,0.554 30.133,1.541 47.483,3.416Z" style="fill:#c1cdd6;fill-rule:nonzero;"/><path id="prefix__패스_2378" d="M3436.9,624.167l0,68.662c-15.912,-1.413 -31.853,-2.472 -47.812,-3.175l-4.238,0c-24.433,-0.979 -44.633,-0.896 -61.821,0l-4.245,0c-16.796,0.776 -33.498,2.956 -49.93,6.517l-4.237,1.058c-24.434,6.192 -29.892,13.438 -29.892,13.438l0,-68.58c0,0 5.783,-7.25 29.892,-13.437l4.233,-1.058c16.433,-3.566 33.136,-5.75 49.933,-6.53l4.234,0c17.187,-0.895 37.629,-0.979 61.821,0l4.237,0c14.596,0.58 30.479,1.559 47.825,3.105Z" style="fill:#c1cdd6;fill-rule:nonzero;"/><path id="prefix__패스_2379" d="M3436.9,745.15l0,68.663c-175.771,-15.313 -202.083,17.916 -202.083,17.916l-0,-68.662c-0,-0 26.312,-33.229 202.083,-17.917Z" style="fill:#c1cdd6;fill-rule:nonzero;"/><path id="prefix__패스_2380" d="M3436.9,866.213l0,68.662c-175.771,-15.396 -202.083,17.838 -202.083,17.838l-0,-68.584c-0,0 26.312,-33.308 202.083,-17.916Z" style="fill:#c1cdd6;fill-rule:nonzero;"/><path id="prefix__패스_2381" d="M4161.25,686.038l78.6,8.145l141.804,0.417l81.596,-5.383l-118.167,-22.238l-116.066,11.404l-67.767,7.655Z" style="fill:#a9bac4;fill-rule:nonzero;"/><path id="prefix__패스_2382" d="M4463.03,622.504l0,67.359c0,-0 -174.058,-16.292 -302.016,-3.175l-0.001,-67.28c0.001,0 119.975,-23.946 302.017,3.096Z" style="fill:#c1cdd6;fill-rule:nonzero;"/><path id="prefix__패스_2383" d="M1818.6,538.071l-25.087,31.196l-47.892,-1.792l0,20.833l-38.608,-1.221l-0.417,-49.033l112.004,0.017Z" style="fill:#7f6f69;fill-rule:nonzero;"/><path id="prefix__패스_2384" d="M1178.02,462.133l224.72,-0.895l8.071,593.999l-219.916,11.567l-12.875,-604.671Z" style="fill:#f4c0b5;fill-rule:nonzero;"/><path id="prefix__패스_2385" d="M1313.88,416.158l30.138,-40.971l17.429,0l39.583,-59.133l70.942,-16.454l69.721,17.429l5.295,-9.041l-75,-16.859l-75.6,14.829l-37.958,58.717l-17.429,-0.65l-36.488,52.133l9.367,0Z" style="fill:#70615c;fill-rule:nonzero;"/><rect id="prefix__사각형_1229" x="1344.01" y="373.975" width="17.754" height="40.971" style="fill-rule:nonzero;"/><path id="prefix__패스_2386" d="M1401.03,315.65l1.221,107.842l-40.479,-7.738l-0.325,-40.979l39.583,-59.125Z" style="fill:#7f6f69;fill-rule:nonzero;"/><path id="prefix__패스_2387" d="M1344.02,373.975l-30.138,40.958l30.138,0l-0,-40.958Z" style="fill:#7f6f69;fill-rule:nonzero;"/><path id="prefix__패스_2388" d="M1402.25,421.629l-40.483,-7.737l-57.246,-0l-177.5,7.5l-26.717,90.083l7.25,0l23.954,-75.917l271.067,0l-0.325,-13.929Z" style="fill:#70615c;fill-rule:nonzero;"/><path id="prefix__패스_2389" d="M1402.58,435.583l0,18.5l-269.275,0l-1.792,-18.487l271.067,-0.013Z" style="fill:#b29d93;fill-rule:nonzero;"/><path id="prefix__패스_2390" d="M1133.3,453.771l-17.917,57.421l-7.821,-0l23.946,-75.913l1.792,18.492Z" style="fill-rule:nonzero;"/><path id="prefix__패스_2391" d="M1014.95,510.154l155.896,0l0,14.009l-151.354,-0l-4.542,-14.009Z" style="fill:#b29d93;fill-rule:nonzero;"/><path id="prefix__패스_2392" d="M1014.95,509.871l-1.954,59.296l5.125,-0l1.383,-45.288l-4.554,-14.008Z" style="fill-rule:nonzero;"/><path id="prefix__패스_2393" d="M1133.3,453.521l-17.916,57.421l55.466,-0l0,-24.679l7.167,-18.75l224.721,-0.896l-0.163,-13.113l-269.275,0.017Z" style="fill-rule:nonzero;"/><rect id="prefix__사각형_1230" x="1194.31" y="585.833" width="204.604" height="34.779" style="fill:#b29d93;fill-rule:nonzero;"/><path id="prefix__패스_2394" d="M1194.31,585.833l-4.725,6.355l0,25.25l4.725,3.175l0,-34.78Z" style="fill-rule:nonzero;"/><rect id="prefix__사각형_1231" x="1199.03" y="737.05" width="204.604" height="34.779" style="fill:#b29d93;fill-rule:nonzero;"/><path id="prefix__패스_2395" d="M1199.03,737.05l-4.725,6.354l0,25.329l4.725,3.096l0,-34.779Z" style="fill-rule:nonzero;"/><rect id="prefix__사각형_1232" x="1203.84" y="878.992" width="204.604" height="34.779" style="fill:#b29d93;fill-rule:nonzero;"/><path id="prefix__패스_2396" d="M1203.76,878.992l-4.725,6.354l0,25.25l4.725,3.175l0,-34.779Z" style="fill-rule:nonzero;"/><path id="prefix__패스_2397" d="M1178.02,463l9.041,314.167l2.525,153.533l0,74.121l-5.191,-0l-13.542,-484.4l-0,-38.688l7.167,-18.733Z" style="fill:#f4c0b5;fill-rule:nonzero;"/><path id="prefix__패스_2398" d="M1541.7,310.9l10.346,818.088l-143.596,-2.688l-7.417,-816.375l70.942,-16.454l69.725,17.429Z" style="fill-rule:nonzero;"/><path id="prefix__패스_2399" d="M1538.52,1122.2l-116.8,-2.2l-0,-633.85c-0.082,-1.302 -0.082,-2.607 -0,-3.908c-0.068,-1.426 0.072,-2.853 0.416,-4.238c3.144,-18.939 16.552,-34.645 34.763,-40.721c1.385,-0.492 2.799,-0.9 4.233,-1.221c3.952,-0.92 7.997,-1.384 12.054,-1.383c5.94,-0.007 11.837,1.012 17.43,3.013c1.454,0.492 2.87,1.091 4.237,1.791c15.612,7.116 26.621,21.652 29.242,38.609c0.275,1.399 0.466,2.814 0.57,4.237l0,2.608l0.984,43.488l-0,4.233l12.871,589.542Z" style="fill:#c1cdd6;fill-rule:nonzero;"/><path id="prefix__패스_2400" d="M1514.96,440.925l251.437,3.829l0,17.838l-251.275,-5.7l-0.162,-15.967Z" style="fill:#b29d93;fill-rule:nonzero;"/><path id="prefix__패스_2401" d="M1515.37,463.529l193.362,4.167l12.054,678.646l-196.946,-18.979l-8.47,-663.834Z" style="fill:#f4c0b5;fill-rule:nonzero;"/><path id="prefix__패스_2402" d="M1766.4,462.158l-57.083,41.542l-0.734,-29.242l-193.362,-4.166l-0.083,-13.846l251.262,5.712Z" style="fill-rule:nonzero;"/><path id="prefix__패스_2403" d="M1514.62,421.883l91.633,0l165.75,13.605l-5.62,9.612l-251.438,-3.842l-0.325,-19.375Z" style="fill:#70615c;fill-rule:nonzero;"/><path id="prefix__패스_2404" d="M1018.13,569l153.779,-5.05l-1.058,-40.237l-151.333,-0l-1.388,45.287Z" style="fill:#7f6f69;fill-rule:nonzero;"/><path id="prefix__패스_2405" d="M1706.35,518.179l75.417,1.792l42.437,4.479l-1.142,3.013l-116.475,0.649l-0.237,-9.933Z" style="fill:#70615c;fill-rule:nonzero;"/><path id="prefix__패스_2406" d="M1823.07,527.288l-4.479,11.25l-111.834,0.416l-0.162,-10.996l116.475,-0.671Z" style="fill:#b29d93;fill-rule:nonzero;"/><path id="prefix__패스_2407" d="M516.15,585.033l501.979,-16.858l58.154,-1.875l16.617,25.25l-612.262,24.208l35.512,-30.725Z" style="fill:#b29d93;fill-rule:nonzero;"/><path id="prefix__패스_2408" d="M1742.92,566.938l485.771,17.5l96.925,31.929l-513.709,-16.292l-68.987,-33.137Z" style="fill:#b29d93;fill-rule:nonzero;"/><path id="prefix__패스_2409" d="M2325.62,616.108l-34.863,37.305l0,-13.196l-457.75,-13.929l-16.292,8.47l-24.108,-13.275l-7.167,-21.666l-42.5,-22.888l0,-10.262l68.988,33.15l513.692,16.291Z" style="fill:#7f6f69;fill-rule:nonzero;"/><path id="prefix__패스_2410" d="M2289.85,634.833l-0,440.238l-470.375,12.625l-3.667,-458.333l16.292,-8.471l457.75,13.941Z" style="fill:#f4c0b5;fill-rule:nonzero;"/><path id="prefix__패스_2411" d="M480.638,615.171l26.625,39.504l-0,-11.738l566.57,-19.954l0,14.5l16.292,-22.316l2.771,-24.192l-612.258,24.196Z" style="fill:#7f6f69;fill-rule:nonzero;"/><path id="prefix__패스_2412" d="M507.275,636.604l0,11.729l5.863,156.713l-0,359.116l566.895,-27.204l-6.187,-505.808l-0,-14.5l-566.571,19.954Z" style="fill:#f4c0b5;fill-rule:nonzero;"/><rect id="prefix__사각형_1233" x="1785.09" y="538.2" width="7.492" height="31.196" style="fill-rule:nonzero;"/><path id="prefix__패스_2413" d="M1042.97,523.717l7.658,-0l-0.245,44.229l-7.413,0.246l0,-44.475Z" style="fill-rule:nonzero;"/><path id="prefix__패스_2414" d="M1073.92,645.196l100.346,-0l1.142,41.621l-100.917,-0l-0.571,-41.621Z" style="fill-rule:nonzero;"/><path id="prefix__패스_2415" d="M1075.72,786.304l102.3,-1.791l1.304,38.85l-103.117,-0l-0.487,-37.059Z" style="fill-rule:nonzero;"/><path id="prefix__패스_2416" d="M1708.8,645.196l64.1,-0l-0,40.646l-63.367,0.733l-0.733,-41.379Z" style="fill-rule:nonzero;"/><path id="prefix__패스_2417" d="M1710.05,783.438l70.042,-1.125l-0,33.395l-69.313,1.142l-0.729,-33.413Z" style="fill-rule:nonzero;"/><path id="prefix__패스_2418" d="M1745.08,572.083l0,69.396l27.125,0l0,40.646l-27.125,0l0,99.45l34.371,-0.487l0,33.395l-34.371,0l-2.116,256.892l79.583,16.858l-3.667,-458.333l-24.108,-13.275l-7.167,-21.667l-42.525,-22.875Z" style="fill:#e2afa6;fill-rule:nonzero;"/><path id="prefix__패스_2419" d="M1745.08,572.083l0,69.396l27.125,0l0,40.646l-27.125,0l0,99.45l34.371,-0.487l0,33.395l-34.371,0l-2.116,256.892l79.583,16.858l-3.667,-458.333l-24.108,-13.275l-7.167,-21.667l-42.525,-22.875Z" style="fill-rule:nonzero;"/><path id="prefix__패스_2420" d="M1707.85,585.646l38.038,1.712l-0,58.805l-36.98,-0l-1.058,-60.517Z" style="fill:#d3a9a3;fill-rule:nonzero;"/><path id="prefix__패스_2421" d="M1709.62,685.304l36.25,-0.733l-0,100.5l-35.675,-0.417l-0.575,-99.35Z" style="fill:#d3a9a3;fill-rule:nonzero;"/><path id="prefix__패스_2422" d="M1711.95,812.883l33.883,-0.896l-2.2,291.43l-27.916,-3.667l-3.767,-286.867Z" style="fill:#d3a9a3;fill-rule:nonzero;"/><path id="prefix__패스_2423" d="M1076.28,566.1l16.617,25.25l-2.771,24.192l-16.292,22.316l0.084,8.554l100.346,0l-2.363,-83.487l-95.621,3.175Z" style="fill:#e2afa6;fill-rule:nonzero;"/><path id="prefix__패스_2424" d="M1074.5,685.517l100.917,-0l2.608,100.266l-102.3,1.792l-1.225,-102.058Z" style="fill:#e2afa6;fill-rule:nonzero;"/><path id="prefix__패스_2425" d="M1076.2,819.408l103.117,0l5.133,183.334l-104.583,118.183l-3.667,-301.517Z" style="fill:#e2afa6;fill-rule:nonzero;"/><rect id="prefix__사각형_1234" x="1529.42" y="585.833" width="187.904" height="34.779" style="fill:#b29d93;fill-rule:nonzero;"/><path id="prefix__패스_2426" d="M1557.82,585.833l-4.725,6.355l-0,25.25l4.725,3.175l-0,-34.78Z" style="fill-rule:nonzero;"/><rect id="prefix__사각형_1235" x="1529.42" y="733.054" width="187.904" height="34.779" style="fill:#b29d93;fill-rule:nonzero;"/><path id="prefix__패스_2427" d="M1557.82,733.054l-4.725,6.354l-0,25.33l4.725,3.095l-0,-34.779Z" style="fill-rule:nonzero;"/><rect id="prefix__사각형_1236" x="1529.42" y="878.992" width="187.904" height="34.779" style="fill:#b29d93;fill-rule:nonzero;"/><path id="prefix__패스_2428" d="M1557.82,878.992l-4.725,6.354l-0,25.25l4.725,3.175l-0,-34.779Z" style="fill-rule:nonzero;"/><path id="prefix__패스_2429" d="M2324.62,615.738l-34.863,37.304l0,-13.196l-457.762,-13.929l-16.292,8.471l-4.792,-34.942l513.709,16.292Z" style="fill-rule:nonzero;"/><path id="prefix__패스_2430" d="M480.638,615.258l26.625,27.767l566.57,-19.954l19.059,-32.009l-612.255,24.196Z" style="fill-rule:nonzero;"/><path id="prefix__패스_2431" d="M3596.25,331.392l0.733,10.587l79.167,-7.004l57.083,35.675l9.042,-6.271l-65,-40.416l-81.025,7.429Z" style="fill:#b29d93;fill-rule:nonzero;"/><path id="prefix__패스_2432" d="M3598.91,331.258l-147.833,39.259l6.925,5.458l141.642,-34.129l-0.734,-10.588Z" style="fill-rule:nonzero;"/><path id="prefix__패스_2433" d="M3597.05,337.717l6.192,626.762l18.162,-6.762l-7.329,-591.33l106.621,21.421l-0,555.9l12.625,-5.7l-0,-571.621l-57.083,-35.675l-79.188,7.005Z" style="fill:#ffd8d2;fill-rule:nonzero;"/><path id="prefix__패스_2434" d="M3720.63,387.242l0,551.583l-99.287,18.333l-1.383,-111.341l-0.001,-4.4l-0.65,-48.463l-0.083,-4.317l-0.571,-48.462l0,-4.317l-0.65,-48.462l-0.083,-4.317l-0.571,-48.462l-0.083,-4.317l-0,-0.083l-0.571,-48.384l-0.083,-4.4l-0.567,-48.487l-0.083,-4.317l-0.571,-48.462l-0.083,-4.317l-1.3,-106.029l106.62,21.421Z" style="fill:#9fb0c4;fill-rule:nonzero;"/><path id="prefix__패스_2435" d="M3457.88,371.504l0,610.713l147.834,-18.084l-6.192,-626.758l-141.642,34.129Z" style="fill:#f4c0b5;fill-rule:nonzero;"/><path id="prefix__패스_2436" d="M3457.93,449.046l142.375,-36l0,-1.954l-142.375,36.408l0,1.546Z" style="fill:#dda59b;fill-rule:nonzero;"/><path id="prefix__패스_2437" d="M3457.92,529.733l143.191,-36.162l-0.083,-2.038l-143.108,36.571l-0,1.629Z" style="fill:#dda59b;fill-rule:nonzero;"/><path id="prefix__패스_2438" d="M3457.91,610.417l143.925,-36.409l-0,-1.954l-143.925,36.734l-0,1.629Z" style="fill:#dda59b;fill-rule:nonzero;"/><path id="prefix__패스_2439" d="M3457.9,691.021l145,-36.571l-0.246,-1.954l-144.754,36.979l0,1.546Z" style="fill:#dda59b;fill-rule:nonzero;"/><path id="prefix__패스_2440" d="M3457.9,771.708l145.633,-36.733l0,-2.037l-145.633,37.22l0,1.55Z" style="fill:#dda59b;fill-rule:nonzero;"/><path id="prefix__패스_2441" d="M3457.89,852.392l146.445,-36.979l0,-1.955l-146.445,37.375l-0,1.559Z" style="fill:#dda59b;fill-rule:nonzero;"/><path id="prefix__패스_2442" d="M3457.89,933.075l147.179,-37.221l-0,-1.954l-147.179,37.629l-0,1.546Z" style="fill:#636363;fill-rule:nonzero;"/><path id="prefix__패스_2443" d="M3727.4,406.75l7.004,1.304l0,346.571l372.475,28.183l0,-65.57l139.117,18.979l-0,132.846l-122.992,-3.75l-281.166,38.85l-114.438,30.958l0,-528.371Z" style="fill:#ffd8d2;fill-rule:nonzero;"/><path id="prefix__패스_2444" d="M3735.63,756.15l0,-351.125l372.475,85.117l0,294.2l-372.475,-28.192Z" style="fill:#9fb0c4;fill-rule:nonzero;"/><path id="prefix__패스_2445" d="M4104.16,677.325l60.516,9.45l0,-67.279l-60.516,-15.396l-0.001,73.225Z" style="fill:#ffd8d2;fill-rule:nonzero;"/><path id="prefix__패스_2446" d="M4104.18,562.454l58.075,11.159l0,-71.105l-58.075,-11.975l0,71.921Z" style="fill:#ffd8d2;fill-rule:nonzero;"/><path id="prefix__패스_2447" d="M4103.43,676.154l60.517,9.45l78.6,8.133l-0,41.05l-139.117,-18.966l0,-39.667Z" style="fill:#9fb0c4;fill-rule:nonzero;"/><path id="prefix__패스_2448" d="M4095.29,561.175l58.075,11.158c-0,0 220.566,-10.1 304.462,8.146l81.45,-5.05l0.571,-75.504l471.667,-39.829l-0,309.512l-471.271,22.642l-0,-63.042l-164.45,5.863l-0,-38.85l164.45,-10.834l-0,-66.87l-83.071,4.97c0,0 -159.971,-23.458 -301.775,-3.095l-60.517,-15.396l0.409,-43.821Z" style="fill:#9fb0c4;fill-rule:nonzero;"/><path id="prefix__패스_2449" d="M4158.83,573.5l0,-71.104c0,-0 188.334,-23.213 304.463,12.708l-0,66.788c-0,-0 -74.934,-16.863 -304.463,-8.392Z" style="fill:#c1cdd6;fill-rule:nonzero;"/><path id="prefix__패스_2450" d="M4459.98,524.088l82.267,-4.967l-0.417,57.421l-81.85,5.05l0,-57.504Z" style="fill:#f4c0b5;fill-rule:nonzero;"/><path id="prefix__패스_2451" d="M4459.73,622.412l83.079,-4.966l0,66.875l-82.833,5.458l-0.246,-67.367Z" style="fill:#f4c0b5;fill-rule:nonzero;"/><path id="prefix__패스_2452" d="M4241.14,692.317l-0,172.429l23.05,1.467l-0,-173.896l-23.05,-0Z" style="fill:#f9f0ef;fill-rule:nonzero;"/><rect id="prefix__사각형_1237" x="4364.56" y="692.729" width="16.292" height="172.675" style="fill:#f9f0ef;fill-rule:nonzero;"/><path id="prefix__패스_2453" d="M4263.01,734.625l102.545,0l0,-40.642l-102.545,-0.408l-0,41.05Z" style="fill:#97a7b7;fill-rule:nonzero;"/><path id="prefix__패스_2454" d="M4461.45,688.671l0,41.458l-81.612,2.771l-0,-38.854l81.612,-5.375Z" style="fill:#97a7b7;fill-rule:nonzero;"/><path id="prefix__패스_2455" d="M4163.43,685.508l0,38.525l78.6,10.671l-0,-41.05l-78.6,-8.146Z" style="fill:#97a7b7;fill-rule:nonzero;"/><path id="prefix__패스_2456" d="M4263.01,792.533l102.545,0l0,76.159c0,-0 -84.22,-3.175 -102.545,-1.875l-0,-74.284Z" style="fill:#97a7b7;fill-rule:nonzero;"/><path id="prefix__패스_2457" d="M4263.01,733.938l102.545,-0l0,34.37c0,0 -84.212,-1.87 -102.545,-0.571l-0,-33.799Z" style="fill:#c1cdd6;fill-rule:nonzero;"/><path id="prefix__패스_2458" d="M4373.92,731.283l164.45,-5.862l-0,63.287l471.275,-22.641l-0,97.741l-635.317,0l0,-67.362l68.663,1.712l-0,-25.737c-0,-0 -52.863,-4.234 -68.663,-4.642l-0.408,-36.496Z" style="fill:#f4c0b5;fill-rule:nonzero;"/><path id="prefix__패스_2459" d="M4537.1,789.021l7.413,5.862l463.862,-18.487l0,-10l-471.275,22.625Z" style="fill:#8399aa;fill-rule:nonzero;"/><path id="prefix__패스_2460" d="M5004.62,459.625l37.387,22.238l0,366.2l-37.387,18.654l-0,-407.092Z" style="fill:#ffd8d2;fill-rule:nonzero;"/><path id="prefix__패스_2461" d="M4990.57,461.275l-0,-22.821l126.492,-4.804l-0.001,414.096l-75.833,-2.525l0,-362.784l-50.658,-21.162Z" style="fill:#9fb0c4;fill-rule:nonzero;"/><path id="prefix__패스_2462" d="M4978.58,463.021l0,-46.104l75.18,-25.9l78.274,19.875l0,432.583l-15.066,1.221l-0,-410.346l-126.496,4.792l-0,22.804l-11.892,1.075Z" style="fill:#f4c0b5;fill-rule:nonzero;"/><path id="prefix__패스_2463" d="M4978.59,419.917l-5.538,2.2l-3.504,-8.471l84.221,-30.709l82.916,21.18l-4.641,9.775l-78.275,-19.875l-75.179,25.9Z" style="fill-rule:nonzero;"/><path id="prefix__패스_2464" d="M5130.3,413.45l60.192,40l3.829,-9.937l-59.379,-39.838l-4.642,9.775Z" style="fill:#b29d93;fill-rule:nonzero;"/><path id="prefix__패스_2465" d="M5190.54,450.546l-0.001,396.667l-60.191,-2.771l-0,-433.888l60.191,39.992Z" style="fill:#ffd8d2;fill-rule:nonzero;"/><path id="prefix__패스_2466" d="M3426.55,462.004l32.825,-9.042l0,527.309l-32.825,-0l0,-518.267Z" style="fill:#9fb0c4;fill-rule:nonzero;"/><rect id="prefix__사각형_1238" x="7499.81" y="764.379" width="42.762" height="116.883" style="fill:#d9dadb;fill-rule:nonzero;"/><rect id="prefix__사각형_1239" x="7322.9" y="739.538" width="42.762" height="116.883" style="fill:#d9dadb;fill-rule:nonzero;"/><path id="prefix__패스_2467" d="M5641.26,645.567l0,102.383c70.098,-10.748 140.86,-16.596 211.771,-17.5c89.584,0 223.5,13.846 223.5,13.846l0,-98.729c0,-0 -85.521,-15.15 -225.862,-15.234c-140.342,-0.083 -209.409,15.234 -209.409,15.234Z" style="fill:#ffd8d2;fill-rule:nonzero;"/><path id="prefix__패스_2468" d="M5641.26,568.275l0,65.808c70.098,-10.748 140.86,-16.595 211.771,-17.5c89.584,0 223.5,13.93 223.5,13.93l0,-62.238c0,0 -85.521,-15.15 -225.862,-15.233c-140.342,-0.084 -209.409,15.233 -209.409,15.233Z" style="fill:#c1cdd6;fill-rule:nonzero;"/><path id="prefix__패스_2469" d="M5641.25,759.367l0,81.45l435.5,-0l0,-81.45c0,-0 -85.508,-15.071 -225.833,-15.234c-140.325,-0.162 -209.667,15.234 -209.667,15.234Z" style="fill:#c1cdd6;fill-rule:nonzero;"/><path id="prefix__패스_2470" d="M5857.51,452.2c-165,0 -216.25,31.275 -216.25,31.275l0,73.308c70.102,-10.702 140.863,-16.526 211.771,-17.429c89.584,0 223.5,17.429 223.5,17.429l0,-73.308c0,0 -54,-31.275 -219.021,-31.275Z" style="fill:#ffd8d2;fill-rule:nonzero;"/><path id="prefix__패스_2471" d="M5641.25,483.838l0,11.566c0,0 76.563,-27.204 217.8,-27.042c141.238,0.163 217.717,27.042 217.717,27.042l-0,-11.566c-0,-0 -48.871,-30.871 -217.717,-30.871c-171.375,-0 -217.8,30.87 -217.8,30.87Z" style="fill:#f9f0ef;fill-rule:nonzero;"/><rect id="prefix__사각형_1240" x="5785.15" y="548.038" width="46.996" height="76.808" style="fill:#e8e9ea;fill-rule:nonzero;"/><rect id="prefix__사각형_1241" x="5785.15" y="734.858" width="46.996" height="105.721" style="fill:#e8e9ea;fill-rule:nonzero;"/><path id="prefix__패스_2472" d="M7224.59,282.125l-0.163,-22.642l94.075,4.542l0,483.083l-93.912,-0.325l-0,-464.658Z" style="fill:#c1cdd6;fill-rule:nonzero;"/><path id="prefix__패스_2473" d="M7224.59,289.067l-0.488,-69.071l-33.396,10.833l0,55.875l33.884,2.363Z" style="fill:#f4c0b5;fill-rule:nonzero;"/><path id="prefix__패스_2474" d="M7318.5,467.767l0,17.591c0,0 127.713,-12.3 224.071,37.954l0,-17.591c0,-0 -67.767,-41.7 -224.071,-37.954Z" style="fill:#f9f0ef;fill-rule:nonzero;"/><path id="prefix__패스_2475" d="M7318.5,733.229l0,17.675c0,0 152.963,-2.85 225.617,32.579l-0,-17.591c-0,-0 -44.879,-32.904 -225.617,-32.663Z" style="fill:#f9f0ef;fill-rule:nonzero;"/><path id="prefix__패스_2476" d="M7318.5,476.242l0,-250.055l30.709,13.359l-0,236.696l-30.709,-0Z" style="fill:#f4c0b5;fill-rule:nonzero;"/><path id="prefix__패스_2477" d="M7224.1,219.996l46.25,-14.904l48.167,21.095l-0,34.617l-94.167,-5.862l-0.25,-34.946Z" style="fill:#e2afa6;fill-rule:nonzero;"/><path id="prefix__패스_2478" d="M7224.35,254.942l0.083,11.483l94.075,4.563l0,-10.184l-94.158,-5.862Z" style="fill:#f9f0ef;fill-rule:nonzero;"/><path id="prefix__패스_2479" d="M7349.21,239.708l11.159,-11.158l-88.767,-40.971l-90.667,29.242l9.775,14.008l79.642,-25.737l78.858,34.616Z" style="fill-rule:nonzero;"/><path id="prefix__패스_2480" d="M7180.93,216.821l-73.633,64.429l21.012,1.304l62.392,-51.721l-9.771,-14.012Z" style="fill:#7f6f69;fill-rule:nonzero;"/><path id="prefix__패스_2481" d="M7190.71,230.829l0,55.875l-62.391,-4.166l62.391,-51.709Z" style="fill:#e2afa6;fill-rule:nonzero;"/><path id="prefix__패스_2482" d="M5830.6,279.458l422.809,-15.312l-0.001,461.987l-180.1,4.234l0.001,-245c-15.8,-7.384 -32.425,-12.853 -49.521,-16.292l-0,-40.725l-193.188,5.537l0,-154.429Z" style="fill:#d9dadb;fill-rule:nonzero;"/><path id="prefix__패스_2483" d="M4338.72,648.125c-1.545,10.188 -10.393,17.796 -20.697,17.796c-11.484,0 -20.934,-9.45 -20.934,-20.933c0,-11.484 9.45,-20.934 20.934,-20.934c6.062,0 11.835,2.634 15.809,7.213l-4.4,7.5c-2.277,-4.119 -6.627,-6.685 -11.333,-6.685c-7.105,-0 -12.95,5.846 -12.95,12.95c-0,7.104 5.845,12.95 12.95,12.95c1.075,-0 2.145,-0.134 3.187,-0.399c3.736,-0.912 6.892,-3.413 8.634,-6.841l8.145,-13.438l3.75,-6.354c-1.153,-1.913 -2.554,-3.666 -4.166,-5.213c-5.047,-4.911 -11.818,-7.662 -18.86,-7.662c-14.835,0 -27.042,12.207 -27.042,27.042c0,14.834 12.207,27.041 27.042,27.041c14.31,0 26.269,-11.359 27.006,-25.65l-7.075,1.617Zm-19.059,3.421c-0.5,0.116 -1.012,0.174 -1.525,0.174c-3.708,0 -6.758,-3.051 -6.758,-6.758c-0,-3.708 3.05,-6.758 6.758,-6.758c3.12,-0 5.854,2.16 6.575,5.196c0.176,0.613 0.265,1.247 0.265,1.885c0,3.056 -2.048,5.759 -4.99,6.586l-0.325,-0.325Z" style="fill:#ce93ae;fill-rule:nonzero;"/><rect id="prefix__사각형_1242" x="7122.78" y="288.021" width="101.163" height="103.688" style="fill:#f4c0b5;fill-rule:nonzero;"/><rect id="prefix__사각형_1243" x="7165.78" y="374.858" width="58.238" height="90.246" style="fill:#f4c0b5;fill-rule:nonzero;"/><path id="prefix__패스_2484" d="M7223.94,565.871l-101.163,-4.233l0,-98.8l101.163,-0l-0,103.033Z" style="fill:#f4c0b5;fill-rule:nonzero;"/><path id="prefix__패스_2485" d="M7223.94,745.333l-101.163,0l-24.679,-106.458l125.833,-5.375l0.009,111.833Z" style="fill:#f4c0b5;fill-rule:nonzero;"/><path id="prefix__패스_2486" d="M7369.08,647.067l-50.579,-1.467l0,-75.342l50.579,0l0,76.809Z" style="fill:#97a7b7;fill-rule:nonzero;"/><rect id="prefix__사각형_1244" x="7165.78" y="550.338" width="58.238" height="90.246" style="fill:#f4c0b5;fill-rule:nonzero;"/><rect id="prefix__사각형_1245" x="6250.97" y="362.229" width="50.579" height="90.246" style="fill:#f4c0b5;fill-rule:nonzero;"/><path id="prefix__패스_2487" d="M7126.77,558.671l-906.788,-18.246l0,-90.246l407.084,0l513.22,12.054l-13.516,96.438Z" style="fill:#f4c0b5;fill-rule:nonzero;"/><path id="prefix__패스_2488" d="M7122.78,745.467l-902.796,-12.788l0,-111.833l893.75,18.162l9.046,106.459Z" style="fill:#f4c0b5;fill-rule:nonzero;"/><rect id="prefix__사각형_1246" x="6250.97" y="537.792" width="50.579" height="90.246" style="fill:#f4c0b5;fill-rule:nonzero;"/><rect id="prefix__사각형_1247" x="6103.33" y="231.888" width="258.442" height="44.471" style="fill:#9fb0c4;fill-rule:nonzero;"/><path id="prefix__패스_2489" d="M7122.78,387.829l-902.796,-23.458l0,-103.117l101.163,0l838.371,23.05l-36.738,103.525Z" style="fill:#f4c0b5;fill-rule:nonzero;"/><rect id="prefix__사각형_1248" x="6178.68" y="579.583" width="60.354" height="58.646" style="fill:#c1cdd6;fill-rule:nonzero;"/><rect id="prefix__사각형_1249" x="6087.5" y="579.583" width="60.354" height="58.646" style="fill:#c1cdd6;fill-rule:nonzero;"/><rect id="prefix__사각형_1250" x="6178.68" y="443.121" width="60.354" height="58.646" style="fill:#c1cdd6;fill-rule:nonzero;"/><rect id="prefix__사각형_1251" x="6087.5" y="443.121" width="60.354" height="58.646" style="fill:#c1cdd6;fill-rule:nonzero;"/><path id="prefix__패스_2490" d="M4450.28,772.704l-0,25.738c-0,-0 -153.533,-5.375 -278.233,-0l-0,-25.738c92.527,-8.98 185.706,-8.98 278.233,0Z" style="fill:#9fb0c4;fill-rule:nonzero;"/><path id="prefix__패스_2491" d="M3.175,1171.72l383.063,-86.338l-0,-16.045l-383.063,62.066l-0,40.317Z" style="fill:#e2afa6;fill-rule:nonzero;"/><path id="prefix__패스_2492" d="M386.238,1078.75l-383.063,86.338l-0,180.658l342.579,-184.079l40.479,-21.746l0.005,-61.171Z" style="fill:#ffd8d2;fill-rule:nonzero;"/><g id="prefix__그룹_2287"><g id="prefix__그룹_2286"><clipPath id="_clip1"><rect x="1852.73" y="679.479" width="75.667" height="71.596"/></clipPath><g clip-path="url(#_clip1)"><path id="prefix__패스_2493" d="M1928.39,679.479l-75.667,0l-0,71.667l75.667,-0l-0,-71.667" style="fill:#c1cdd6;fill-rule:nonzero;"/></g></g></g><g id="prefix__그룹_2289"><g id="prefix__그룹_2288"><clipPath id="_clip2"><rect x="1966.23" y="679.479" width="75.667" height="71.596"/></clipPath><g clip-path="url(#_clip2)"><path id="prefix__패스_2494" d="M2041.89,679.479l-75.667,0l0,71.667l75.667,-0l-0,-71.667" style="fill:#c1cdd6;fill-rule:nonzero;"/></g></g></g><g id="prefix__그룹_2291"><g id="prefix__그룹_2290"><clipPath id="_clip3"><rect x="2079.57" y="679.479" width="75.667" height="71.596"/></clipPath><g clip-path="url(#_clip3)"><path id="prefix__패스_2495" d="M2155.23,679.479l-75.666,0l-0,71.667l75.666,-0l0,-71.667" style="fill:#c1cdd6;fill-rule:nonzero;"/></g></g></g><g id="prefix__그룹_2293"><g id="prefix__그룹_2292"><clipPath id="_clip4"><rect x="2192.99" y="679.479" width="75.667" height="71.596"/></clipPath><g clip-path="url(#_clip4)"><path id="prefix__패스_2496" d="M2268.65,679.479l-75.666,0l-0,71.667l75.666,-0l0,-71.667" style="fill:#c1cdd6;fill-rule:nonzero;"/></g></g></g><g id="prefix__그룹_2295"><g id="prefix__그룹_2294"><path id="prefix__패스_2497" d="M1928.39,766.921l-75.667,-0l-0,71.667l75.667,-0l-0,-71.667" style="fill:#c1cdd6;fill-rule:nonzero;"/></g></g><g id="prefix__그룹_2297"><g id="prefix__그룹_2296"><clipPath id="_clip5"><rect x="1966.23" y="766.921" width="75.667" height="71.675"/></clipPath><g clip-path="url(#_clip5)"><path id="prefix__패스_2498" d="M2041.89,766.921l-75.667,-0l0,71.667l75.667,-0l-0,-71.667" style="fill:#c1cdd6;fill-rule:nonzero;"/></g></g></g><g id="prefix__그룹_2299"><g id="prefix__그룹_2298"><clipPath id="_clip6"><rect x="2079.57" y="766.921" width="75.667" height="71.675"/></clipPath><g clip-path="url(#_clip6)"><path id="prefix__패스_2499" d="M2155.23,766.921l-75.666,-0l-0,71.667l75.666,-0l0,-71.667" style="fill:#c1cdd6;fill-rule:nonzero;"/></g></g></g><g id="prefix__그룹_2301"><g id="prefix__그룹_2300"><clipPath id="_clip7"><rect x="2192.99" y="766.921" width="75.667" height="71.675"/></clipPath><g clip-path="url(#_clip7)"><path id="prefix__패스_2500" d="M2268.65,766.921l-75.666,-0l-0,71.667l75.666,-0l0,-71.667" style="fill:#c1cdd6;fill-rule:nonzero;"/></g></g></g><g id="prefix__그룹_2303"><g id="prefix__그룹_2302"><path id="prefix__패스_2501" d="M1928.39,854.283l-75.667,0l-0,71.667l75.667,0l-0,-71.667" style="fill:#c1cdd6;fill-rule:nonzero;"/></g></g><g id="prefix__그룹_2305"><g id="prefix__그룹_2304"><clipPath id="_clip8"><rect x="1966.23" y="854.283" width="75.667" height="71.675"/></clipPath><g clip-path="url(#_clip8)"><path id="prefix__패스_2502" d="M2041.89,854.283l-75.667,0l0,71.667l75.667,0l-0,-71.667" style="fill:#c1cdd6;fill-rule:nonzero;"/></g></g></g><g id="prefix__그룹_2307"><g id="prefix__그룹_2306"><clipPath id="_clip9"><rect x="2079.57" y="854.283" width="75.667" height="71.675"/></clipPath><g clip-path="url(#_clip9)"><path id="prefix__패스_2503" d="M2155.23,854.283l-75.666,0l-0,71.667l75.666,0l0,-71.667" style="fill:#c1cdd6;fill-rule:nonzero;"/></g></g></g><g id="prefix__그룹_2309"><g id="prefix__그룹_2308"><clipPath id="_clip10"><rect x="2192.99" y="854.283" width="75.667" height="71.675"/></clipPath><g clip-path="url(#_clip10)"><path id="prefix__패스_2504" d="M2268.65,854.283l-75.666,0l-0,71.667l75.666,0l0,-71.667" style="fill:#c1cdd6;fill-rule:nonzero;"/></g></g></g><g id="prefix__그룹_2311"><g id="prefix__그룹_2310"><clipPath id="_clip11"><rect x="1852.73" y="941.725" width="75.667" height="71.675"/></clipPath><g clip-path="url(#_clip11)"><path id="prefix__패스_2505" d="M1928.39,941.725l-75.667,0l-0,71.667l75.667,-0l-0,-71.667" style="fill:#c1cdd6;fill-rule:nonzero;"/></g></g></g><g id="prefix__그룹_2313"><g id="prefix__그룹_2312"><clipPath id="_clip12"><rect x="1966.23" y="941.725" width="75.667" height="71.675"/></clipPath><g clip-path="url(#_clip12)"><path id="prefix__패스_2506" d="M2041.89,941.725l-75.667,0l0,71.667l75.667,-0l-0,-71.667" style="fill:#c1cdd6;fill-rule:nonzero;"/></g></g></g><g id="prefix__그룹_2315"><g id="prefix__그룹_2314"><clipPath id="_clip13"><rect x="2079.57" y="941.725" width="75.667" height="71.675"/></clipPath><g clip-path="url(#_clip13)"><path id="prefix__패스_2507" d="M2155.23,941.725l-75.666,0l-0,71.667l75.666,-0l0,-71.667" style="fill:#c1cdd6;fill-rule:nonzero;"/></g></g></g><g id="prefix__그룹_2317"><g id="prefix__그룹_2316"><clipPath id="_clip14"><rect x="2192.99" y="941.725" width="75.667" height="71.675"/></clipPath><g clip-path="url(#_clip14)"><path id="prefix__패스_2508" d="M2268.65,941.725l-75.666,0l-0,71.667l75.666,-0l0,-71.667" style="fill:#c1cdd6;fill-rule:nonzero;"/></g></g></g><g id="prefix__그룹_2319"><g id="prefix__그룹_2318"><path id="prefix__패스_2509" d="M992.8,664.671l-75.667,2.525l1.955,71.666l75.666,-2.525l-1.954,-71.666" style="fill:#c1cdd6;fill-rule:nonzero;"/></g></g><g id="prefix__그룹_2321"><g id="prefix__그룹_2320"><clipPath id="_clip15"><rect x="801.717" y="668.025" width="77.621" height="74.2"/></clipPath><g clip-path="url(#_clip15)"><path id="prefix__패스_2510" d="M877.383,668.025l-75.666,2.608l1.875,71.596l75.666,-2.525l-1.875,-71.666" style="fill:#c1cdd6;fill-rule:nonzero;"/></g></g></g><g id="prefix__그룹_2323"><g id="prefix__그룹_2322"><clipPath id="_clip16"><rect x="686.221" y="671.383" width="77.621" height="74.2"/></clipPath><g clip-path="url(#_clip16)"><path id="prefix__패스_2511" d="M761.971,671.383l-75.75,2.609l2.037,71.596l75.588,-2.442l-1.875,-71.763" style="fill:#c1cdd6;fill-rule:nonzero;"/></g></g></g><g id="prefix__그룹_2325"><g id="prefix__그룹_2324"><path id="prefix__패스_2512" d="M646.475,674.821l-75.587,2.442l1.875,71.666l75.587,-2.442l-1.875,-71.666" style="fill:#c1cdd6;fill-rule:nonzero;"/></g></g><g id="prefix__그룹_2327"><g id="prefix__그룹_2326"><path id="prefix__패스_2513" d="M995.488,752.029l-75.667,2.525l1.875,71.667l75.667,-2.525l-1.875,-71.667" style="fill:#c1cdd6;fill-rule:nonzero;"/></g></g><g id="prefix__그룹_2329"><g id="prefix__그룹_2328"><path id="prefix__패스_2514" d="M879.992,755.467l-75.667,2.441l1.954,71.667l75.667,-2.525l-1.954,-71.583" style="fill:#c1cdd6;fill-rule:nonzero;"/></g></g><g id="prefix__그룹_2331"><g id="prefix__그룹_2330"><clipPath id="_clip17"><rect x="688.988" y="758.825" width="77.542" height="74.2"/></clipPath><g clip-path="url(#_clip17)"><path id="prefix__패스_2515" d="M764.571,758.825l-75.667,2.525l1.954,71.667l75.588,-2.609l-1.875,-71.596" style="fill:#c1cdd6;fill-rule:nonzero;"/></g></g></g><g id="prefix__그룹_2333"><g id="prefix__그룹_2332"><clipPath id="_clip18"><rect x="573.492" y="762.179" width="77.621" height="74.2"/></clipPath><g clip-path="url(#_clip18)"><path id="prefix__패스_2516" d="M649.079,762.179l-75.587,2.525l1.875,71.667l75.75,-2.525l-2.038,-71.667" style="fill:#c1cdd6;fill-rule:nonzero;"/></g></g></g><g id="prefix__그룹_2335"><g id="prefix__그룹_2334"><clipPath id="_clip19"><rect x="922.425" y="839.471" width="77.621" height="74.121"/></clipPath><g clip-path="url(#_clip19)"><path id="prefix__패스_2517" d="M998.092,839.471l-75.667,2.442l1.875,71.666l75.75,-2.525l-1.954,-71.596" style="fill:#c1cdd6;fill-rule:nonzero;"/></g></g></g><g id="prefix__그룹_2337"><g id="prefix__그룹_2336"><path id="prefix__패스_2518" d="M882.679,842.825l-75.666,2.525l1.954,71.596l75.587,-2.525l-1.875,-71.596" style="fill:#c1cdd6;fill-rule:nonzero;"/></g></g><g id="prefix__그룹_2339"><g id="prefix__그룹_2338"><path id="prefix__패스_2519" d="M767.183,846.183l-75.587,2.525l1.875,71.596l75.667,-2.442l-1.955,-71.666" style="fill:#c1cdd6;fill-rule:nonzero;"/></g></g><g id="prefix__그룹_2341"><g id="prefix__그룹_2340"><clipPath id="_clip20"><rect x="576.1" y="849.538" width="77.621" height="74.2"/></clipPath><g clip-path="url(#_clip20)"><path id="prefix__패스_2520" d="M651.85,849.538l-75.75,2.524l1.954,71.667l75.667,-2.525l-1.875,-71.666" style="fill:#c1cdd6;fill-rule:nonzero;"/></g></g></g><g id="prefix__그룹_2343"><g id="prefix__그룹_2342"><clipPath id="_clip21"><rect x="925.117" y="926.75" width="77.542" height="74.2"/></clipPath><g clip-path="url(#_clip21)"><path id="prefix__패스_2521" d="M1000.78,926.75l-75.666,2.608l1.954,71.596l75.587,-2.441l-1.875,-71.759" style="fill:#c1cdd6;fill-rule:nonzero;"/></g></g></g><g id="prefix__그룹_2345"><g id="prefix__그룹_2344"><clipPath id="_clip22"><rect x="809.7" y="930.188" width="77.542" height="74.2"/></clipPath><g clip-path="url(#_clip22)"><path id="prefix__패스_2522" d="M885.288,930.188l-75.588,2.441l1.875,71.667l75.667,-2.442l-1.954,-71.667" style="fill:#c1cdd6;fill-rule:nonzero;"/></g></g></g><g id="prefix__그룹_2347"><g id="prefix__그룹_2346"><clipPath id="_clip23"><rect x="694.204" y="933.542" width="77.621" height="74.2"/></clipPath><g clip-path="url(#_clip23)"><path id="prefix__패스_2523" d="M769.954,933.542l-75.75,2.525l1.954,71.666l75.667,-2.525l-1.875,-71.666" style="fill:#c1cdd6;fill-rule:nonzero;"/></g></g></g><g id="prefix__그룹_2349"><g id="prefix__그룹_2348"><clipPath id="_clip24"><rect x="578.788" y="936.9" width="77.621" height="74.2"/></clipPath><g clip-path="url(#_clip24)"><path id="prefix__패스_2524" d="M654.454,936.9l-75.667,2.525l1.875,71.667l75.667,-2.442l-1.875,-71.758" style="fill:#c1cdd6;fill-rule:nonzero;"/></g></g></g><path id="prefix__패스_2525" d="M4108.1,734.563l-372.475,-38.363l0,-4.317l372.475,38.446l0,4.233Z" style="fill:#a9bed3;fill-rule:nonzero;"/><path id="prefix__패스_2526" d="M4108.1,679.292l-372.475,-51.804l0,-4.317l372.475,51.804l0,4.317Z" style="fill:#a9bed3;fill-rule:nonzero;"/><path id="prefix__패스_2527" d="M4108.1,628.608l-372.475,-66.137l0,-4.317l372.475,66.125l0,4.329Z" style="fill:#a9bed3;fill-rule:nonzero;"/><path id="prefix__패스_2528" d="M4108.1,575.604l-372.475,-71.596l0,-4.316l372.475,71.583l0,4.329Z" style="fill:#a9bed3;fill-rule:nonzero;"/><path id="prefix__패스_2529" d="M4108.1,525.571l-372.475,-77.95l0,-4.317l372.475,77.95l0,4.317Z" style="fill:#a9bed3;fill-rule:nonzero;"/><path id="prefix__패스_2530" d="M3793.88,760.417l-4.237,-0.325l-0,-343.234l4.237,0.979l0,342.58Z" style="fill:#a9bed3;fill-rule:nonzero;"/><path id="prefix__패스_2531" d="M3849.24,764.429l-4.234,-0.246l0,-334.679l4.233,0.979l0,333.946Z" style="fill:#a9bed3;fill-rule:nonzero;"/><path id="prefix__패스_2532" d="M3901.16,768.217l-4.238,-0.325l0,-326.538l4.238,0.979l-0,325.884Z" style="fill:#a9bed3;fill-rule:nonzero;"/><path id="prefix__패스_2533" d="M3951.96,771.925l-4.237,-0.246l-0,-318.712l4.237,0.979l0,317.979Z" style="fill:#a9bed3;fill-rule:nonzero;"/><path id="prefix__패스_2534" d="M4007.08,775.946l-4.237,-0.325l-0,-310l4.237,0.979l0,309.346Z" style="fill:#a9bed3;fill-rule:nonzero;"/><path id="prefix__패스_2535" d="M4059.08,779.737l-4.233,-0.245l-0,-302.017l4.233,0.979l0,301.284Z" style="fill:#a9bed3;fill-rule:nonzero;"/><path id="prefix__패스_2536" d="M4163.98,620.288l-4.317,-1.142l0,-47.242l2.117,0.417l2.2,-0l0,47.966Z" style="fill:#a9bed3;fill-rule:nonzero;"/><rect id="prefix__사각형_1284" x="4208.12" y="570.892" width="4.238" height="44.308" style="fill:#a9bed3;fill-rule:nonzero;"/><rect id="prefix__사각형_1285" x="4259.24" y="570.108" width="4.238" height="42.438" style="fill:#a9bed3;fill-rule:nonzero;"/><rect id="prefix__사각형_1286" x="4310.36" y="570.271" width="4.238" height="41.704" style="fill:#a9bed3;fill-rule:nonzero;"/><rect id="prefix__사각형_1287" x="4361.56" y="571.625" width="4.238" height="42.679" style="fill:#a9bed3;fill-rule:nonzero;"/><rect id="prefix__사각형_1288" x="4412.68" y="574.9" width="4.238" height="43.25" style="fill:#a9bed3;fill-rule:nonzero;"/><path id="prefix__패스_2537" d="M4166.28,724.371l-4.237,-0.571l-0,-38.525l2.116,0.325l2.117,0.246l0.004,38.525Z" style="fill:#a9bed3;fill-rule:nonzero;"/><rect id="prefix__사각형_1289" x="4310.36" y="693.979" width="4.238" height="40.646" style="fill:#a9bed3;fill-rule:nonzero;"/><rect id="prefix__사각형_1290" x="4361.57" y="693.979" width="3.175" height="40.646" style="fill:#a9bed3;fill-rule:nonzero;"/><rect id="prefix__사각형_1291" x="4412.68" y="691.746" width="4.238" height="39.913" style="fill:#a9bed3;fill-rule:nonzero;"/><path id="prefix__패스_2538" d="M4462.92,623.258l-2.363,0.084l-1.875,-0.246l0,-42.921l2.117,0.417l2.117,-0.084l0.004,42.75Z" style="fill:#a9bed3;fill-rule:nonzero;"/><path id="prefix__패스_2539" d="M4106.82,605.771l-2.117,-0.571l0,-43.821l2.117,0.417l0,43.975Z" style="fill:#a9bed3;fill-rule:nonzero;"/><path id="prefix__패스_2540" d="M4107.06,716.396l-2.363,-0.417l0,-39.666l2.363,0.325l-0.001,39.758Z" style="fill:#a9bed3;fill-rule:nonzero;"/><rect id="prefix__사각형_1292" x="4499.24" y="578.1" width="4.238" height="42.6" style="fill:#a9bed3;fill-rule:nonzero;"/><path id="prefix__패스_2541" d="M4503.48,728.563l-4.238,0.083l0.001,-42.438l4.237,-0.325l0,42.68Z" style="fill:#a9bed3;fill-rule:nonzero;"/><rect id="prefix__사각형_1293" x="4540.06" y="683.317" width="2.117" height="43.821" style="fill:#a9bed3;fill-rule:nonzero;"/><path id="prefix__패스_2542" d="M4592.35,789.596l-4.233,0.162l-0,-294.045l4.233,-0.325l0,294.208Z" style="fill:#a9bed3;fill-rule:nonzero;"/><path id="prefix__패스_2543" d="M4636.99,787.458l-4.238,0.163l0,-295.658l4.238,-0.325l-0,295.82Z" style="fill:#a9bed3;fill-rule:nonzero;"/><path id="prefix__패스_2544" d="M4681.07,785.329l-4.238,0.246l0,-297.296l4.238,-0.416l-0,297.466Z" style="fill:#a9bed3;fill-rule:nonzero;"/><path id="prefix__패스_2545" d="M4721.47,783.438l-4.238,0.245l0,-298.841l4.238,-0.417l-0,299.013Z" style="fill:#a9bed3;fill-rule:nonzero;"/><path id="prefix__패스_2546" d="M4757.82,781.708l-2.767,-300.062l4.233,-0.417l2.771,300.308l-4.237,0.171Z" style="fill:#a9bed3;fill-rule:nonzero;"/><path id="prefix__패스_2547" d="M4798.22,779.817l-3.333,-301.53l4.237,-0.416l3.333,301.775l-4.237,0.171Z" style="fill:#a9bed3;fill-rule:nonzero;"/><path id="prefix__패스_2548" d="M4838.79,777.921l-4.4,-302.996l4.237,-0.325l4.233,303.158l-4.071,0.163Z" style="fill:#a9bed3;fill-rule:nonzero;"/><path id="prefix__패스_2549" d="M4879.92,775.95l-6.6,-304.3l4.233,-0.417l6.596,304.542l-4.229,0.175Z" style="fill:#a9bed3;fill-rule:nonzero;"/><path id="prefix__패스_2550" d="M4925.2,773.821l-6.517,-306.009l4.238,-0.416l6.516,306.25l-4.237,0.175Z" style="fill:#a9bed3;fill-rule:nonzero;"/><path id="prefix__패스_2551" d="M4969.07,771.775l-4.238,0.163l0,-308.046l4.238,-0.325l-0,308.208Z" style="fill:#a9bed3;fill-rule:nonzero;"/><path id="prefix__패스_2552" d="M4536.54,524.433l-0.001,-4.233l471.842,-38.933l0,4.237l-471.841,38.929Z" style="fill:#a9bed3;fill-rule:nonzero;"/><path id="prefix__패스_2553" d="M4536.13,572.158l0.079,-4.316l472.171,-30.546l0,4.233l-472.25,30.629Z" style="fill:#a9bed3;fill-rule:nonzero;"/><path id="prefix__패스_2554" d="M4542.18,618.463l-2.116,0.162l-0.896,-42.917l2.037,-0.083l0.975,42.838Z" style="fill:#a9bed3;fill-rule:nonzero;"/><path id="prefix__패스_2555" d="M4537.1,619.708l-0.083,-4.237l471.358,-27.938l-0,4.234l-471.275,27.941Z" style="fill:#a9bed3;fill-rule:nonzero;"/><path id="prefix__패스_2556" d="M4537.27,666.25l-0.246,-4.217l471.354,-27.958l0,4.233l-471.108,27.942Z" style="fill:#a9bed3;fill-rule:nonzero;"/><path id="prefix__패스_2557" d="M4537.02,712.788l-0,-4.234l471.354,-27.916l0,4.233l-471.354,27.917Z" style="fill:#a9bed3;fill-rule:nonzero;"/><path id="prefix__패스_2558" d="M4537.27,759.333l-0.246,-4.233l471.354,-28.021l0,4.238l-471.108,28.016Z" style="fill:#a9bed3;fill-rule:nonzero;"/><path id="prefix__패스_2559" d="M5029.39,479.854l-4.234,-1.791l0,-37.955l4.234,0l-0,39.746Z" style="fill:#a9bed3;fill-rule:nonzero;"/><path id="prefix__사각형_1294" d="M5066.99,435.358l4.237,-0.045l4.349,408.531l-4.237,0.045l-4.349,-408.531Z" style="fill:#a9bed3;fill-rule:nonzero;"/><path id="prefix__패스_2560" d="M5027.12,478.892l-9.367,-3.909l99.046,-3.583l0.163,4.238l-89.842,3.254Z" style="fill:#a9bed3;fill-rule:nonzero;"/><path id="prefix__사각형_1295" d="M5026.18,510.255l75.866,-2.649l0.148,4.235l-75.866,2.649l-0.148,-4.235Z" style="fill:#a9bed3;fill-rule:nonzero;"/><path id="prefix__사각형_1296" d="M5026.19,547.003l75.867,-2.649l0.148,4.235l-75.867,2.649l-0.148,-4.235Z" style="fill:#a9bed3;fill-rule:nonzero;"/><path id="prefix__사각형_1297" d="M5026.21,583.831l75.866,-2.65l0.148,4.235l-75.866,2.65l-0.148,-4.235Z" style="fill:#a9bed3;fill-rule:nonzero;"/><path id="prefix__사각형_1298" d="M5040.68,622.908l75.915,-3.407l0.191,4.233l-75.916,3.408l-0.19,-4.234Z" style="fill:#a9bed3;fill-rule:nonzero;"/><path id="prefix__사각형_1299" d="M5026.23,657.489l75.866,-2.649l0.148,4.235l-75.866,2.649l-0.148,-4.235Z" style="fill:#a9bed3;fill-rule:nonzero;"/><path id="prefix__사각형_1300" d="M5026.16,694.238l75.866,-2.65l0.148,4.235l-75.866,2.65l-0.148,-4.235Z" style="fill:#a9bed3;fill-rule:nonzero;"/><path id="prefix__사각형_1301" d="M5026.18,731.065l75.866,-2.649l0.148,4.235l-75.866,2.649l-0.148,-4.235Z" style="fill:#a9bed3;fill-rule:nonzero;"/><path id="prefix__사각형_1302" d="M5026.19,767.892l75.866,-2.649l0.148,4.235l-75.866,2.649l-0.148,-4.235Z" style="fill:#a9bed3;fill-rule:nonzero;"/><path id="prefix__사각형_1303" d="M5040.72,807.267l75.915,-3.408l0.19,4.233l-75.915,3.408l-0.19,-4.233Z" style="fill:#a9bed3;fill-rule:nonzero;"/><path id="prefix__패스_2561" d="M3688.47,863.475l-2.525,-482.333l4.317,0.833l2.441,481.533l-4.233,-0.033Z" style="fill:#a9bed3;fill-rule:nonzero;"/><path id="prefix__패스_2562" d="M3649.15,864.771l-6.842,-492.45l4.238,0.896l6.842,491.47l-4.238,0.084Z" style="fill:#a9bed3;fill-rule:nonzero;"/><path id="prefix__패스_2563" d="M3445,457.767l0,441.054l-4.237,-0l-0,-439.913l4.237,-1.141Z" style="fill:#a9bed3;fill-rule:nonzero;"/><path id="prefix__패스_2564" d="M3720.62,448.25l-105.887,-21.746l-0,-4.317l105.887,21.746l0,4.317Z" style="fill:#a9bed3;fill-rule:nonzero;"/><path id="prefix__패스_2565" d="M3720.63,495.679l0,4.317l-105.233,-21.667l-0.083,-4.317l105.316,21.667Z" style="fill:#a9bed3;fill-rule:nonzero;"/><path id="prefix__패스_2566" d="M3720.61,547.342l0,4.316l-104.583,-21.504l-0.083,-4.316l104.666,21.504Z" style="fill:#a9bed3;fill-rule:nonzero;"/><path id="prefix__패스_2567" d="M3720.6,599.083l0,4.317l-103.929,-21.337l-0.083,-4.4l104.012,21.42Z" style="fill:#a9bed3;fill-rule:nonzero;"/><path id="prefix__패스_2568" d="M3720.6,650.733l0,4.4l-103.279,-21.25l-0.079,-4.316l103.358,21.166Z" style="fill:#a9bed3;fill-rule:nonzero;"/><path id="prefix__패스_2569" d="M3720.59,702.488l-0,4.32l-102.625,-21.1l-0.084,-4.316l102.709,21.096Z" style="fill:#a9bed3;fill-rule:nonzero;"/><path id="prefix__패스_2570" d="M3720.57,754.133l-0,4.334l-101.959,-20.934l0,-4.316l101.959,20.916Z" style="fill:#a9bed3;fill-rule:nonzero;"/><path id="prefix__패스_2571" d="M3720.58,805.892l0,4.316l-101.325,-20.833l-0.083,-4.317l101.408,20.834Z" style="fill:#a9bed3;fill-rule:nonzero;"/><path id="prefix__패스_2572" d="M3720.58,857.638l0,4.316l-100.675,-20.671l0,-4.416l100.675,20.771Z" style="fill:#a9bed3;fill-rule:nonzero;"/><path id="prefix__패스_2573" d="M4461.45,512.688c-26.513,-8.126 -53.818,-13.397 -81.45,-15.721l-0,370.762l81.45,-2.117l-0,-352.925Z" style="fill:#8399aa;fill-rule:nonzero;"/><path id="prefix__패스_2574" d="M3269.81,506.604l0,68.584l-4.237,1.058l-0,-68.583l2.117,-0.571l2.12,-0.488Z" style="fill:#a9bed3;fill-rule:nonzero;"/><path id="prefix__패스_2575" d="M3323,499.975l0,68.825l-4.237,-0l-0,-68.579c1.221,-0.163 2.771,-0.163 4.237,-0.246Z" style="fill:#a9bed3;fill-rule:nonzero;"/><path id="prefix__패스_2576" d="M3387.88,500.146l0,68.658l-3.908,0l-0,-68.908l3.908,0.25Z" style="fill:#a9bed3;fill-rule:nonzero;"/><path id="prefix__패스_2577" d="M3269.81,938.396l0,-68.663l-4.237,1.059l-0,68.662l4.237,-1.058Z" style="fill:#a9bed3;fill-rule:nonzero;"/><rect id="prefix__패스_2578" x="3318.77" y="863.271" width="4.237" height="68.662" style="fill:#a9bed3;fill-rule:nonzero;"/><rect id="prefix__패스_2579" x="3383.65" y="863.271" width="4.237" height="68.662" style="fill:#a9bed3;fill-rule:nonzero;"/><path id="prefix__패스_2580" d="M3269.81,817.3l0,-68.663l-4.237,1.059l-0,68.662l4.237,-1.058Z" style="fill:#a9bed3;fill-rule:nonzero;"/><path id="prefix__패스_2581" d="M3323,742.013l0,68.662l-4.237,0l-0,-68.417l4.237,-0.245Z" style="fill:#a9bed3;fill-rule:nonzero;"/><path id="prefix__패스_2582" d="M3387.88,742.171l0,68.662l-4.237,0l-0,-68.825l4.237,0.163Z" style="fill:#a9bed3;fill-rule:nonzero;"/><path id="prefix__패스_2583" d="M3269.81,696.362l0,-68.662l-4.237,1.058l-0,68.663l4.237,-1.058Z" style="fill:#a9bed3;fill-rule:nonzero;"/><path id="prefix__패스_2584" d="M3323,621.075l0,68.663l-4.237,-0l-0,-68.417l4.237,-0.246Z" style="fill:#a9bed3;fill-rule:nonzero;"/><path id="prefix__패스_2585" d="M3387.88,621.233l0,68.663l-4.237,-0l-0,-68.825l4.237,0.162Z" style="fill:#a9bed3;fill-rule:nonzero;"/><path id="prefix__패스_2586" d="M5317.87,692.317l-0,68.333l-4.234,-1.875l0,-68.333l4.234,1.875Z" style="fill:#a9bed3;fill-rule:nonzero;"/><path id="prefix__패스_2587" d="M5264.43,679.421l0,68.662l4.238,0.571l-0,-68.583l-4.238,-0.65Z" style="fill:#a9bed3;fill-rule:nonzero;"/><path id="prefix__패스_2588" d="M5317.87,813.25l-0,68.663l-4.234,-1.875l0,-68.663l4.234,1.875Z" style="fill:#a9bed3;fill-rule:nonzero;"/><path id="prefix__패스_2589" d="M5264.43,800.596l0,68.583l4.238,0.571l-0,-68.75l-4.238,-0.404Z" style="fill:#a9bed3;fill-rule:nonzero;"/><path id="prefix__패스_2590" d="M5317.87,571.138l-0,68.662l-4.234,-1.875l0,-68.663l4.234,1.875Z" style="fill:#a9bed3;fill-rule:nonzero;"/><path id="prefix__패스_2591" d="M5264.43,558.404l0,68.663l4.238,0.571l-0,-68.75l-4.238,-0.484Z" style="fill:#a9bed3;fill-rule:nonzero;"/><rect id="prefix__사각형_1304" x="5211.63" y="556.008" width="4.238" height="68.663" style="fill:#a9bed3;fill-rule:nonzero;"/><rect id="prefix__사각형_1305" x="5211.63" y="677.025" width="4.238" height="68.663" style="fill:#a9bed3;fill-rule:nonzero;"/><rect id="prefix__사각형_1306" x="5211.63" y="798.046" width="4.238" height="68.663" style="fill:#a9bed3;fill-rule:nonzero;"/><path id="prefix__패스_2592" d="M5034.12,478.771l-0,-0.571l25.333,3.583l0,358.546l-17.837,-0.416l-0,-358.046l-7.496,-3.096Z" style="fill:#8399aa;fill-rule:nonzero;"/><path id="prefix__패스_2593" d="M3426.55,504.538l0,-4.4l32.825,-7.005l0,4.317l-32.825,7.087Z" style="fill:#a9bed3;fill-rule:nonzero;"/><path id="prefix__패스_2594" d="M3426.55,543.571l0,-4.317l32.825,-7.083l0,4.4l-32.825,7Z" style="fill:#a9bed3;fill-rule:nonzero;"/><path id="prefix__패스_2595" d="M3426.55,582.525l0,-4.242l32.825,-7.004l0,4.317l-32.825,6.929Z" style="fill:#a9bed3;fill-rule:nonzero;"/><path id="prefix__패스_2596" d="M3426.55,621.721l0,-4.321l32.825,-7.083l0,4.316l-32.825,7.088Z" style="fill:#a9bed3;fill-rule:nonzero;"/><path id="prefix__패스_2597" d="M3426.55,660.754l0,-4.317l32.825,-7.004l0,4.317l-32.825,7.004Z" style="fill:#a9bed3;fill-rule:nonzero;"/><path id="prefix__패스_2598" d="M3426.55,699.871l0,-4.4l32.825,-7.004l0,4.316l-32.825,7.088Z" style="fill:#a9bed3;fill-rule:nonzero;"/><path id="prefix__패스_2599" d="M3426.55,738.904l0,-4.316l32.825,-7.084l0,4.317l-32.825,7.083Z" style="fill:#a9bed3;fill-rule:nonzero;"/><path id="prefix__패스_2600" d="M3426.55,777.938l0,-4.317l32.825,-7.004l0,4.316l-32.825,7.005Z" style="fill:#a9bed3;fill-rule:nonzero;"/><path id="prefix__패스_2601" d="M3426.55,817.054l0,-4.404l32.825,-7.004l0,4.317l-32.825,7.091Z" style="fill:#a9bed3;fill-rule:nonzero;"/><path id="prefix__패스_2602" d="M3426.55,856.092l0,-4.321l32.825,-7.083l0,4.4l-32.825,7.004Z" style="fill:#a9bed3;fill-rule:nonzero;"/><path id="prefix__사각형_1307" d="M3426.06,890.879l32.82,-7.047l0.889,4.144l-32.82,7.047l-0.89,-4.144Z" style="fill:#a9bed3;fill-rule:nonzero;"/><rect id="prefix__사각형_1308" x="5670.67" y="563.7" width="4.238" height="66.058" style="fill:#cad6dd;fill-rule:nonzero;"/><rect id="prefix__사각형_1309" x="5730.75" y="556.829" width="4.238" height="66.058" style="fill:#cad6dd;fill-rule:nonzero;"/><rect id="prefix__사각형_1310" x="5880.43" y="553.471" width="4.238" height="66.058" style="fill:#cad6dd;fill-rule:nonzero;"/><rect id="prefix__사각형_1311" x="5936.82" y="553.471" width="4.238" height="66.058" style="fill:#cad6dd;fill-rule:nonzero;"/><rect id="prefix__사각형_1312" x="5995.14" y="558.746" width="4.238" height="66.058" style="fill:#cad6dd;fill-rule:nonzero;"/><rect id="prefix__사각형_1313" x="6055.06" y="563.7" width="4.238" height="66.058" style="fill:#cad6dd;fill-rule:nonzero;"/><rect id="prefix__사각형_1314" x="5670.67" y="754.104" width="4.238" height="98.717" style="fill:#cad6dd;fill-rule:nonzero;"/><rect id="prefix__사각형_1315" x="5730.75" y="747.15" width="4.238" height="98.717" style="fill:#cad6dd;fill-rule:nonzero;"/><rect id="prefix__사각형_1316" x="5880.43" y="743.796" width="4.238" height="98.717" style="fill:#cad6dd;fill-rule:nonzero;"/><rect id="prefix__사각형_1317" x="5936.82" y="743.796" width="4.238" height="98.717" style="fill:#cad6dd;fill-rule:nonzero;"/><rect id="prefix__사각형_1318" x="5995.14" y="749.067" width="4.238" height="98.717" style="fill:#cad6dd;fill-rule:nonzero;"/><rect id="prefix__사각형_1319" x="6055.06" y="754.021" width="4.238" height="98.717" style="fill:#cad6dd;fill-rule:nonzero;"/><rect id="prefix__사각형_1320" x="6072.24" y="716.375" width="184.892" height="30.708" style="fill:#f9f0ef;fill-rule:nonzero;"/><rect id="prefix__사각형_1321" x="6372.9" y="375.533" width="4.238" height="66.708" style="fill:#cad6dd;fill-rule:nonzero;"/><rect id="prefix__사각형_1322" x="6429.31" y="375.521" width="4.238" height="69.15" style="fill:#cad6dd;fill-rule:nonzero;"/><rect id="prefix__사각형_1323" x="6515.24" y="375.513" width="4.238" height="70.7" style="fill:#cad6dd;fill-rule:nonzero;"/><rect id="prefix__사각형_1324" x="6601.09" y="378.413" width="4.238" height="66.221" style="fill:#cad6dd;fill-rule:nonzero;"/><rect id="prefix__사각형_1325" x="6686.94" y="379.85" width="4.238" height="66.3" style="fill:#cad6dd;fill-rule:nonzero;"/><rect id="prefix__사각형_1326" x="6772.79" y="383.779" width="4.238" height="63.45" style="fill:#cad6dd;fill-rule:nonzero;"/><rect id="prefix__사각형_1327" x="6858.72" y="385.688" width="4.238" height="65.729" style="fill:#cad6dd;fill-rule:nonzero;"/><path id="prefix__선_59" d="M6946.68,387.938l0,63.45" style="fill:none;fill-rule:nonzero;"/><path id="prefix__선_60" d="M7032.53,392.096l0,63.45" style="fill:none;fill-rule:nonzero;"/><path id="prefix__선_61" d="M7118.46,396.25l-0,63.45" style="fill:none;fill-rule:nonzero;"/><rect id="prefix__사각형_1328" x="6372.9" y="549.629" width="4.238" height="66.708" style="fill:#cad6dd;fill-rule:nonzero;"/><rect id="prefix__사각형_1329" x="6429.31" y="549.613" width="4.238" height="69.15" style="fill:#cad6dd;fill-rule:nonzero;"/><rect id="prefix__사각형_1330" x="6515.24" y="549.6" width="4.238" height="70.7" style="fill:#cad6dd;fill-rule:nonzero;"/><rect id="prefix__사각형_1331" x="6601.09" y="556.346" width="4.238" height="66.221" style="fill:#cad6dd;fill-rule:nonzero;"/><rect id="prefix__사각형_1332" x="6686.94" y="556.504" width="4.238" height="66.3" style="fill:#cad6dd;fill-rule:nonzero;"/><rect id="prefix__사각형_1333" x="6772.79" y="560.921" width="4.238" height="63.45" style="fill:#cad6dd;fill-rule:nonzero;"/><rect id="prefix__사각형_1334" x="6858.72" y="562.025" width="4.238" height="65.729" style="fill:#cad6dd;fill-rule:nonzero;"/><path id="prefix__선_62" d="M6946.68,564.171l0,67.279" style="fill:none;fill-rule:nonzero;"/><path id="prefix__선_63" d="M7032.53,567.046l0,68.012" style="fill:none;fill-rule:nonzero;"/><path id="prefix__선_64" d="M7118.46,570.333l-0,66.463" style="fill:none;fill-rule:nonzero;"/><path id="prefix__선_65" d="M7270.61,261.717l-0.001,485.362" style="fill:none;fill-rule:nonzero;"/><path id="prefix__선_66" d="M7224.59,298.142l93.912,4.804" style="fill:none;fill-rule:nonzero;"/><path id="prefix__선_67" d="M7224.59,348.7l93.912,4.804" style="fill:none;fill-rule:nonzero;"/><path id="prefix__선_68" d="M7224.59,399.258l93.912,4.805" style="fill:none;fill-rule:nonzero;"/><path id="prefix__선_69" d="M7224.59,449.896l93.912,4.725" style="fill:none;fill-rule:nonzero;"/><path id="prefix__선_70" d="M7224.59,500.45l93.912,4.804" style="fill:none;fill-rule:nonzero;"/><path id="prefix__선_71" d="M7224.59,551.008l93.912,4.804" style="fill:none;fill-rule:nonzero;"/><path id="prefix__선_72" d="M7224.59,601.567l93.912,4.804" style="fill:none;fill-rule:nonzero;"/><path id="prefix__선_73" d="M7224.59,652.204l93.912,4.725" style="fill:none;fill-rule:nonzero;"/><path id="prefix__선_74" d="M7224.59,702.758l93.912,4.805" style="fill:none;fill-rule:nonzero;"/><path id="prefix__선_75" d="M7386.19,580.575l-0.001,54.408" style="fill:none;fill-rule:nonzero;stroke:#aebece;stroke-width:4.17px;"/><path id="prefix__선_76" d="M7445.24,586.492l-0,54.408" style="fill:none;fill-rule:nonzero;stroke:#aebece;stroke-width:4.17px;"/><path id="prefix__선_77" d="M7503.8,597.275l0,55.55" style="fill:none;fill-rule:nonzero;stroke:#aebece;stroke-width:4.17px;"/><rect id="prefix__사각형_1335" x="6142.26" y="231.888" width="4.238" height="44.471" style="fill:#aebece;fill-rule:nonzero;"/><rect id="prefix__사각형_1336" x="6187.14" y="231.888" width="4.238" height="44.471" style="fill:#aebece;fill-rule:nonzero;"/><rect id="prefix__사각형_1337" x="6230.58" y="231.888" width="4.238" height="44.471" style="fill:#aebece;fill-rule:nonzero;"/><rect id="prefix__사각형_1338" x="6278.26" y="231.888" width="4.238" height="23.213" style="fill:#aebece;fill-rule:nonzero;"/><rect id="prefix__사각형_1339" x="6321.46" y="231.888" width="4.238" height="22.238" style="fill:#aebece;fill-rule:nonzero;"/><rect id="prefix__사각형_1340" x="6064.23" y="104.908" width="36.408" height="4.237" style="fill:#aebece;fill-rule:nonzero;"/><rect id="prefix__사각형_1341" x="6364.52" y="104.908" width="36.408" height="4.237" style="fill:#aebece;fill-rule:nonzero;"/><rect id="prefix__사각형_1342" x="6132.67" y="104.908" width="198.004" height="4.237" style="fill:#aebece;fill-rule:nonzero;"/><rect id="prefix__사각형_1343" x="6103.33" y="252.983" width="258.442" height="4.238" style="fill:#aebece;fill-rule:nonzero;"/><rect id="prefix__사각형_1344" x="6088.82" y="74.121" width="4.238" height="67.604" style="fill:#aebece;fill-rule:nonzero;"/><rect id="prefix__사각형_1345" x="6143.86" y="74.121" width="4.238" height="57.667" style="fill:#aebece;fill-rule:nonzero;"/><rect id="prefix__사각형_1346" x="6195.22" y="74.121" width="4.238" height="49.521" style="fill:#aebece;fill-rule:nonzero;"/><rect id="prefix__사각형_1347" x="6260.82" y="74.121" width="4.238" height="49.521" style="fill:#aebece;fill-rule:nonzero;"/><rect id="prefix__사각형_1348" x="6306.02" y="74.121" width="4.238" height="53.596" style="fill:#aebece;fill-rule:nonzero;"/><rect id="prefix__사각형_1349" x="6369.06" y="74.121" width="4.238" height="61.25" style="fill:#aebece;fill-rule:nonzero;"/><path id="prefix__패스_2603" d="M6219.98,255.354l0,15.721c0,0 558.263,0 1004.61,32.579l-0,-14.583c-0,-0 -505.971,-38.529 -1004.61,-33.717Z" style="fill:#f9f0ef;fill-rule:nonzero;"/><path id="prefix__패스_2604" d="M7224.59,280.804l25.329,23.621l-0,556.958l-33.8,-0.162l-0,-101.325l8.471,-0l-0,-14.417l-0.65,0l-0,-88.383l0.65,-0l-0,-14.417l-0.65,-0.083l-0,-64.333l0.65,-0l-0,-14.5l-0.65,-0l-0,-87.967l0.65,-0l-0,-14.417l-0.65,-0.083l-0,-55.221l0.65,0l-0,-14.417l-0.65,-0.083l-0,-96.271l0.65,0l-0,-14.5Z" style="fill:#8399aa;fill-rule:nonzero;"/><path id="prefix__패스_2605" d="M1852.73,679.238l-0,7.583l69.804,-0l0,64.346l5.946,-0l-0,-71.929l-75.75,-0Z" style="fill:#a5b8c4;fill-rule:nonzero;"/><path id="prefix__패스_2606" d="M1966.15,679.238l-0,7.583l69.804,-0l0,64.346l5.946,-0l-0,-71.929l-75.75,-0Z" style="fill:#a5b8c4;fill-rule:nonzero;"/><path id="prefix__패스_2607" d="M1852.73,766.758l-0,7.575l69.804,0l0,64.346l5.946,0l-0,-71.921l-75.75,0Z" style="fill:#a5b8c4;fill-rule:nonzero;"/><path id="prefix__패스_2608" d="M1966.15,766.758l-0,7.575l69.804,0l0,64.346l5.946,0l-0,-71.921l-75.75,0Z" style="fill:#a5b8c4;fill-rule:nonzero;"/><path id="prefix__패스_2609" d="M1852.73,854.279l-0,7.583l69.804,0l0,64.346l5.946,0l-0,-71.929l-75.75,0Z" style="fill:#a5b8c4;fill-rule:nonzero;"/><path id="prefix__패스_2610" d="M1966.15,854.279l-0,7.583l69.804,0l0,64.346l5.946,0l-0,-71.929l-75.75,0Z" style="fill:#a5b8c4;fill-rule:nonzero;"/><path id="prefix__패스_2611" d="M1852.73,941.804l-0,7.575l69.804,0l0,64.346l5.946,0l-0,-71.921l-75.75,0Z" style="fill:#a5b8c4;fill-rule:nonzero;"/><path id="prefix__패스_2612" d="M1966.15,941.804l-0,7.575l69.804,0l0,64.346l5.946,0l-0,-71.921l-75.75,0Z" style="fill:#a5b8c4;fill-rule:nonzero;"/><path id="prefix__패스_2613" d="M2079.57,679.238l-0,7.583l69.804,-0l-0,64.346l5.946,-0l-0,-71.929l-75.75,-0Z" style="fill:#a5b8c4;fill-rule:nonzero;"/><path id="prefix__패스_2614" d="M2192.9,679.238l0,7.583l69.884,-0l-0,64.346l5.945,-0l0,-71.929l-75.829,-0Z" style="fill:#a5b8c4;fill-rule:nonzero;"/><path id="prefix__패스_2615" d="M2079.57,766.758l-0,7.575l69.804,0l-0,64.346l5.946,0l-0,-71.921l-75.75,0Z" style="fill:#a5b8c4;fill-rule:nonzero;"/><path id="prefix__패스_2616" d="M2192.9,766.758l0,7.575l69.884,0l-0,64.346l5.945,0l0,-71.921l-75.829,0Z" style="fill:#a5b8c4;fill-rule:nonzero;"/><path id="prefix__패스_2617" d="M2079.57,854.279l-0,7.583l69.804,0l-0,64.346l5.946,0l-0,-71.929l-75.75,0Z" style="fill:#a5b8c4;fill-rule:nonzero;"/><path id="prefix__패스_2618" d="M2192.9,854.279l0,7.583l69.884,0l-0,64.346l5.945,0l0,-71.929l-75.829,0Z" style="fill:#a5b8c4;fill-rule:nonzero;"/><path id="prefix__패스_2619" d="M2079.57,941.804l-0,7.575l69.804,0l-0,64.346l5.946,0l-0,-71.921l-75.75,0Z" style="fill:#a5b8c4;fill-rule:nonzero;"/><path id="prefix__패스_2620" d="M2192.9,941.804l0,7.575l69.884,0l-0,64.346l5.945,0l0,-71.921l-75.829,0Z" style="fill:#a5b8c4;fill-rule:nonzero;"/><path id="prefix__패스_2621" d="M581.313,836.054l-1.955,-63.696l69.559,-1.875l-0,-8.141l-75.834,2.441l2.117,71.434l6.113,-0.163Z" style="fill:#a5b8c4;fill-rule:nonzero;"/><path id="prefix__패스_2622" d="M578.867,748.696l-1.954,-63.696l69.558,-1.875l-0,-8.142l-75.833,2.442l2.116,71.433l6.113,-0.162Z" style="fill:#a5b8c4;fill-rule:nonzero;"/><path id="prefix__패스_2623" d="M584.308,923.408l-1.875,-63.695l69.559,-1.875l-0,-8.138l-75.892,2.458l2.117,71.513l6.091,-0.263Z" style="fill:#a5b8c4;fill-rule:nonzero;"/><path id="prefix__패스_2624" d="M587.258,1010.86l-1.933,-63.779l69.558,-1.875l0,-8.142l-75.833,2.442l2.108,71.517l6.1,-0.163Z" style="fill:#a5b8c4;fill-rule:nonzero;"/><path id="prefix__패스_2625" d="M694.363,745.258l-1.875,-63.696l69.558,-1.875l-0,-8.141l-75.913,2.441l2.117,71.513l6.113,-0.242Z" style="fill:#a5b8c4;fill-rule:nonzero;"/><path id="prefix__패스_2626" d="M697.217,832.538l-1.934,-63.696l69.559,-1.875l-0,-8.142l-75.834,2.442l2.109,71.433l6.1,-0.162Z" style="fill:#a5b8c4;fill-rule:nonzero;"/><path id="prefix__패스_2627" d="M699.333,920.058l-1.875,-63.695l69.559,-1.875l-0,-8.142l-75.913,2.442l2.117,71.433l6.112,-0.163Z" style="fill:#a5b8c4;fill-rule:nonzero;"/><path id="prefix__패스_2628" d="M702.508,1007.34l-1.875,-63.775l69.559,-1.875l-0,-8.146l-75.913,2.442l2.117,71.512l6.112,-0.158Z" style="fill:#a5b8c4;fill-rule:nonzero;"/><path id="prefix__패스_2629" d="M812.467,829.263l-1.875,-63.696l69.558,-1.875l0,-8.142l-75.912,2.442l2.116,71.512l6.113,-0.241Z" style="fill:#a5b8c4;fill-rule:nonzero;"/><path id="prefix__패스_2630" d="M809.533,741.9l-1.954,-63.696l69.558,-1.954l0,-8.142l-75.833,2.525l2.117,71.434l6.112,-0.167Z" style="fill:#a5b8c4;fill-rule:nonzero;"/><path id="prefix__패스_2631" d="M815.075,916.704l-1.954,-63.775l69.641,-1.875l0,-8.146l-75.912,2.525l2.117,71.434l6.108,-0.163Z" style="fill:#a5b8c4;fill-rule:nonzero;"/><path id="prefix__패스_2632" d="M818.004,1004.06l-1.875,-63.696l69.559,-1.954l-0,-8.141l-75.909,2.541l2.2,71.434l6.025,-0.184Z" style="fill:#a5b8c4;fill-rule:nonzero;"/><path id="prefix__패스_2633" d="M928.125,825.9l-1.954,-63.696l69.558,-1.875l0,-8.137l-75.833,2.441l2.116,71.434l6.113,-0.167Z" style="fill:#a5b8c4;fill-rule:nonzero;"/><path id="prefix__패스_2634" d="M925.113,738.546l-1.876,-63.696l69.559,-1.875l-0,-8.142l-75.913,2.442l2.117,71.513l6.113,-0.242Z" style="fill:#a5b8c4;fill-rule:nonzero;"/><path id="prefix__패스_2635" d="M933.096,1000.71l-1.954,-63.775l69.558,-1.875l0,-8.145l-75.833,2.441l2.116,71.513l6.113,-0.159Z" style="fill:#a5b8c4;fill-rule:nonzero;"/><path id="prefix__패스_2636" d="M930.471,913.267l-1.875,-63.696l69.558,-1.875l0,-8.142l-75.912,2.442l2.2,71.433l6.029,-0.162Z" style="fill:#a5b8c4;fill-rule:nonzero;"/><path id="prefix__패스_2637" d="M507.275,642.158l2.038,67.196l566.408,-19.221l-1.875,-67.916l-566.571,19.941Z" style="fill-rule:nonzero;"/><path id="prefix__패스_2638" d="M1815.8,633.838l0,52.208l474.042,0.733l-0,-47.5l-457.75,-13.912l-16.292,8.471Z" style="fill-rule:nonzero;"/><path id="prefix__패스_2639" d="M1511.15,1050.55l-4.317,0l-16.291,-611.854c1.454,0.493 2.87,1.091 4.237,1.792l16.371,610.062Z" style="fill:#a9bed3;fill-rule:nonzero;"/><path id="prefix__패스_2640" d="M1461.3,437.071l0,614.871l-4.237,-0l-0,-613.65c1.385,-0.493 2.798,-0.901 4.233,-1.221l0.004,-0Z" style="fill:#a9bed3;fill-rule:nonzero;"/><path id="prefix__패스_2641" d="M1524.84,488.067l-102.963,-0c-0.067,-1.424 0.073,-2.85 0.417,-4.234l101.975,0c0.275,1.399 0.466,2.812 0.571,4.234Z" style="fill:#a9bed3;fill-rule:nonzero;"/><path id="prefix__패스_2642" d="M1525.98,537.329l-104.338,0l0,-4.237l104.259,-0l0.079,4.237Z" style="fill:#a9bed3;fill-rule:nonzero;"/><rect id="prefix__사각형_1350" x="1421.72" y="582.529" width="104.908" height="4.237" style="fill:#a9bed3;fill-rule:nonzero;"/><rect id="prefix__사각형_1351" x="1421.72" y="631.967" width="106.375" height="4.237" style="fill:#a9bed3;fill-rule:nonzero;"/><rect id="prefix__사각형_1352" x="1421.72" y="681.404" width="107.433" height="4.237" style="fill:#a9bed3;fill-rule:nonzero;"/><rect id="prefix__사각형_1353" x="1421.72" y="730.925" width="108.492" height="4.237" style="fill:#a9bed3;fill-rule:nonzero;"/><rect id="prefix__사각형_1354" x="1421.72" y="780.363" width="109.633" height="4.237" style="fill:#a9bed3;fill-rule:nonzero;"/><rect id="prefix__사각형_1355" x="1421.72" y="829.8" width="110.692" height="4.237" style="fill:#a9bed3;fill-rule:nonzero;"/><rect id="prefix__사각형_1356" x="1421.72" y="879.238" width="111.75" height="4.237" style="fill:#a9bed3;fill-rule:nonzero;"/><rect id="prefix__사각형_1357" x="1421.72" y="928.675" width="112.808" height="4.237" style="fill:#a9bed3;fill-rule:nonzero;"/><rect id="prefix__사각형_1358" x="1421.72" y="978.113" width="113.867" height="4.237" style="fill:#a9bed3;fill-rule:nonzero;"/><rect id="prefix__사각형_1359" x="1421.72" y="1027.55" width="114.925" height="4.237" style="fill:#a9bed3;fill-rule:nonzero;"/><circle id="prefix__타원_76" cx="1473.2" cy="495.563" r="31.521" style="fill:#f9f0ef;"/><path id="prefix__패스_2643" d="M1473.2,531.346c-19.617,-0 -35.758,-16.142 -35.758,-35.759c-0,-19.616 16.141,-35.758 35.758,-35.758c19.616,0 35.758,16.142 35.758,35.758c0,19.617 -16.142,35.759 -35.758,35.759Zm-0,-67.279c-17.292,-0 -31.521,14.229 -31.521,31.521c0,17.291 14.229,31.52 31.521,31.52c17.292,0 31.521,-14.229 31.521,-31.521c-0,-17.291 -14.229,-31.52 -31.521,-31.52Z" style="fill-rule:nonzero;"/><path id="prefix__패스_2644" d="M6267.55,792.638l905.812,11.404l0,-50.663l-868.262,-18.162l-45.45,4.562l7.9,52.859Z" style="fill:#8399aa;fill-rule:nonzero;"/><rect id="prefix__사각형_1360" x="6255.8" y="739.538" width="42.762" height="116.883" style="fill:#d9dadb;fill-rule:nonzero;"/><rect id="prefix__사각형_1361" x="6559.06" y="739.538" width="42.762" height="116.883" style="fill:#d9dadb;fill-rule:nonzero;"/><rect id="prefix__사각형_1362" x="6851.79" y="739.538" width="42.762" height="116.883" style="fill:#d9dadb;fill-rule:nonzero;"/><rect id="prefix__사각형_1363" x="7173.36" y="739.538" width="42.762" height="116.883" style="fill:#d9dadb;fill-rule:nonzero;"/><path id="prefix__패스_2645" d="M6219.98,726.475l0,15.721c0,-0 552.888,4.725 1004.61,12.542l-0,-14.417c-0,-0 -502.309,-10.179 -1004.61,-13.846Z" style="fill:#f9f0ef;fill-rule:nonzero;"/><path id="prefix__패스_2646" d="M4163.43,722.5l0,-38.2l78.6,8.146l-0,75.417c-19.304,0.733 -67.767,5.375 -67.767,5.375l0,25.416l67.767,-1.954l-0,65.158l-78.6,0l0,-173.404" style="fill:#8399aa;fill-rule:nonzero;"/><path id="prefix__패스_2647" d="M1488.02,506.275c-0.349,0.075 -0.71,0.075 -1.059,0l-14.825,-8.717c-0.653,-0.358 -1.06,-1.046 -1.058,-1.791l0,-16.942c0,-1.161 0.955,-2.117 2.117,-2.117c1.161,0 2.116,0.956 2.116,2.117l0,15.475l13.75,8.146c1.005,0.591 1.374,1.884 0.834,2.916c-0.441,0.589 -1.14,0.929 -1.875,0.913Z" style="fill-rule:nonzero;"/><path id="prefix__패스_2648" d="M3459.8,453.575l-1.304,414.096l-13.033,13.437l-4.234,4.4l-56.037,57.829l-0,-500.595c8.145,-0 49.929,5.7 49.929,5.7l-0,11.975l6.108,-1.713l4.233,-1.141l14.338,-3.988Z" style="fill:#8399aa;fill-rule:nonzero;"/><path id="prefix__패스_2649" d="M5189.47,499.146c19.906,-0.679 39.835,-0.346 59.708,0.996l0,343.375l-59.708,-1.709l-0,-342.662Z" style="fill:#8399aa;fill-rule:nonzero;"/><path id="prefix__패스_2650" d="M5641.25,633.271l0,13.275c0,-0 68.417,-15.379 209.667,-15.217c141.25,0.163 225.833,15.229 225.833,15.229l0,-16.858c0,0 -133.725,-13.929 -223.483,-13.929c-70.993,0.893 -141.838,6.74 -212.017,17.5Z" style="fill:#f9f0ef;fill-rule:nonzero;"/><path id="prefix__패스_2651" d="M5641.25,555.629l0,13.279c0,0 68.417,-15.312 209.667,-15.233c141.25,0.079 225.833,15.233 225.833,15.233l0,-13.279c0,0 -133.75,-17.429 -223.5,-17.429c-70.99,0.892 -141.833,6.716 -212.016,17.429l0.016,0Z" style="fill:#f9f0ef;fill-rule:nonzero;"/><path id="prefix__패스_2652" d="M5641.25,746.829l0,13.438c0,-0 68.417,-15.3 209.667,-15.217c141.25,0.083 225.833,15.229 225.833,15.229l0,-17.104c0,0 -133.75,-13.846 -223.5,-13.846c-70.993,0.893 -141.838,6.741 -212.017,17.5l0.017,0Z" style="fill:#f9f0ef;fill-rule:nonzero;"/><path id="prefix__패스_2653" d="M6219.98,437.638l0,15.637c0,0 552.888,-1.546 1004.61,22.642l-0,-14.417c-0,-0 -502.309,-24.433 -1004.61,-23.863Z" style="fill:#f9f0ef;fill-rule:nonzero;"/><path id="prefix__패스_2654" d="M6219.98,538.146l0,15.637c0,0 552.888,-1.791 1004.61,22.642l-0,-14.417c-0,0 -502.305,-24.429 -1004.61,-23.862Z" style="fill:#f9f0ef;fill-rule:nonzero;"/><path id="prefix__패스_2655" d="M6219.98,614.829l0,15.638c0,-0 553.863,9.366 1004.61,23.458l-0,-14.417c-0,0 -502.309,-21.096 -1004.61,-24.679Z" style="fill:#f9f0ef;fill-rule:nonzero;"/><path id="prefix__패스_2656" d="M6219.98,359.796l0,15.637c0,0 558.263,0 1004.61,32.58l-0,-14.821c-0,-0 -505.971,-38.525 -1004.61,-33.396Z" style="fill:#f9f0ef;fill-rule:nonzero;"/><path id="prefix__패스_2657" d="M6251.84,268.467l-57.017,86.5l-0,493.333l61.833,0l0,-579.833l-4.816,-0Z" style="fill:#8399aa;fill-rule:nonzero;"/><path id="prefix__패스_2658" d="M7318.5,563.896l0,17.592c0,-0 122.175,-11.667 225.617,32.579l-0,-17.5c-0,-0 -44.879,-32.913 -225.617,-32.671Z" style="fill:#f9f0ef;fill-rule:nonzero;"/><path id="prefix__패스_2659" d="M7318.5,633.933l0,17.592c0,0 122.175,-11.667 225.617,32.579l-0,-17.5c-0,0 -44.879,-32.912 -225.617,-32.671Z" style="fill:#f9f0ef;fill-rule:nonzero;"/><path id="prefix__패스_2660" d="M3436.9,966.654l0,8.063l-81.371,45.125l-120.708,-26.796l0,-7.983l120.708,26.795l81.371,-45.204Z" style="fill:#f4c0b5;fill-rule:nonzero;"/><path id="prefix__패스_2661" d="M5428.31,885.667l0,209.733l-19.466,0.162l-193.2,1.792l-0,-51.896l-42.6,0l-0,-74.937l-21.913,2.687l-444.716,0l-0,60.375l-5.134,0l0,-60.37l-19.708,-0l-7.917,11.158l-93.1,1.954l0,-104.746l7.575,-33.475l283.692,-17.187l455.796,5.7l-0,17.35l81.204,-0l-0,31.604l19.487,0.096Z" style="fill:#d9dadb;fill-rule:nonzero;"/><rect id="prefix__사각형_1364" x="3753.18" y="977.654" width="947.513" height="29.321" style="fill:#d9dadb;fill-rule:nonzero;"/><rect id="prefix__사각형_1365" x="5139.91" y="1031.88" width="84.137" height="72.167" style="fill:#cacbcc;fill-rule:nonzero;"/><path id="prefix__패스_2662" d="M8000,892.333l0,179.517l-2836.5,25.483l0,-51.875l-24.271,-14.416l-18.333,-60.517l-21.913,2.688l-444.725,-0l0,60.37l-5.133,0l-0,-60.37l-19.708,-0l-7.917,11.158l-93.1,1.954l-0,-104.746l7.575,-33.475l283.692,-17.187l455.795,5.7l0,17.35l81.205,-0l-0,31.604l2643.33,6.762Z" style="fill:#d1d1d1;fill-rule:nonzero;"/><path id="prefix__패스_2663" d="M5428.31,885.667l0,209.733l-19.466,0.162l-193.2,1.792l-0,-51.896l-42.6,0l-0,-74.937l-21.913,2.687l-444.716,0l-0,60.375l-5.134,0l0,-60.37l-19.708,-0l-7.917,11.158l-93.1,1.954l0,-104.746l7.575,-33.475l283.692,-17.187l455.796,5.7l-0,17.35l81.204,-0l-0,31.604l19.487,0.096Z" style="fill:#d9dadb;fill-rule:nonzero;"/><path id="prefix__패스_2664" d="M5172.3,980.413l0,64.1l-4.808,2.037l-0,9.283l-3.829,2.525l-0.001,10.834l-4.887,2.687l0,9.529l-3.504,2.688l-0,10.508l-4.883,0l-0.001,-111.179l21.913,-3.012" style="fill:#f7f7f7;fill-rule:nonzero;"/><path id="prefix__패스_2665" d="M5150.39,973.729l21.912,-2.687l0,10.833l-21.912,3.013l-0,-11.159" style="fill:#bababa;fill-rule:nonzero;"/><path id="prefix__패스_2666" d="M4708.9,1090.66l0,-118.334l444.721,0l0,122.338l-444.721,-3.992" style="fill:#bababa;fill-rule:nonzero;"/><path id="prefix__패스_2667" d="M4708.9,1101.59l0,-118.334l444.721,0l0,122.259l-444.721,-3.925" style="fill:#e8e9ea;fill-rule:nonzero;"/><path id="prefix__패스_2668" d="M3409.89,907.246c-0,-0 23.783,-43.413 37.791,-43.413c14.008,0 237.083,-6.27 237.083,-6.27l920.88,4.479l-4.888,21.666l-1190.87,23.538" style="fill:#f9f0ef;fill-rule:nonzero;"/><path id="prefix__패스_2669" d="M2355.5,1091.29l0,-46.188l346.817,-52.454l461.904,-41.783l232.867,-45.346l450.341,-13.521l766.529,-10.75l0,17.188l-820.696,13.604l-88.212,79.496l-218.938,2.687l-413.525,35.833l-361.637,0l0,51.15l-355.45,10.084" style="fill:#f9f0ef;fill-rule:nonzero;"/><path id="prefix__패스_2670" d="M2258.49,1093.68l-0,-70.616l679.216,-0l776.792,-49.359l0,109.959l-1456.01,10" style="fill:#f4e3e1;fill-rule:nonzero;"/><path id="prefix__패스_2671" d="M3776.47,913.192l820.696,-13.604l-0,87.641l-820.696,5.459l-0,-79.496" style="fill:#d1d1d1;fill-rule:nonzero;"/><path id="prefix__패스_2672" d="M3697.01,991.638l88.212,-79.496l0,85.929l-20.933,-0l-0,21.012l-23.134,0l0,19.713l-20.525,-0l0,23.554l-8.308,5.212l-38.933,-7.5l6.433,-30.379l17.188,-31.604" style="fill:#d9dadb;fill-rule:nonzero;"/><path id="prefix__패스_2673" d="M4709.17,1032.4l5.133,0l0,57.992l-60.354,-0.488l-1.058,-20.833l15.312,-15.396l14.496,-18.083l11.158,-6.433l15.313,3.258" style="fill:#cacbcc;fill-rule:nonzero;"/><path id="prefix__패스_2674" d="M4703.66,973.038l-14.008,-0l-47.408,67.116l11.891,0l49.525,-67.116" style="fill:#c8cacc;fill-rule:nonzero;"/><path id="prefix__패스_2675" d="M4653.98,1039.49l49.521,-67.117l5.7,0l0,60.354l-17.021,0l0,9.45l-10.587,0l-0,14.008l-11.079,0l-0,11.321l-10.263,0l0,11.729l-6.271,0l0,-39.745" style="fill:#e8e9ea;fill-rule:nonzero;"/><path id="prefix__패스_2676" d="M3471.75,1073.35l0,-79.821l218.938,-2.687l-0,69.541l964.129,10.509l-0,19.075l-1183.07,-16.617" style="fill:#c8cacc;fill-rule:nonzero;"/><rect id="prefix__사각형_1366" x="718.638" y="1087.82" width="51.804" height="7.658" style="fill:#e8e9ea;fill-rule:nonzero;"/><rect id="prefix__사각형_1367" x="718.638" y="1073.26" width="51.804" height="7.658" style="fill:#e8e9ea;fill-rule:nonzero;"/><rect id="prefix__사각형_1368" x="718.638" y="1058.78" width="51.804" height="7.658" style="fill:#e8e9ea;fill-rule:nonzero;"/><rect id="prefix__사각형_1369" x="718.638" y="1044.3" width="51.804" height="7.658" style="fill:#f9f0ef;fill-rule:nonzero;"/><path id="prefix__패스_2677" d="M694.283,1051.48l1614.27,-28.75l0,75.588l-1614.27,40.233l0,-87.083" style="fill:#f4e3e1;fill-rule:nonzero;"/><path id="prefix__패스_2678" d="M770.442,973.188l-0,179.516l451.708,-17.512l0,-142.292l-451.708,-19.712Z" style="fill:#e8dbda;fill-rule:nonzero;"/><path id="prefix__패스_2679" d="M4689.88,990.688l-97.083,1.875l-837.633,4.958l-0,21.012l-23.134,0l0,19.713l-20.525,-0l0,23.537l938.88,9.367l-0,-28.996l39.495,-51.466" style="fill:#e8e9ea;fill-rule:nonzero;"/><path id="prefix__패스_2680" d="M3732.07,1038.47l-0,-19.713l936.516,0l-18.162,23.621l-918.354,-3.908Z" style="fill:#d9dadb;fill-rule:nonzero;"/><path id="prefix__패스_2681" d="M3.175,1345.75l438.158,-207.538l2279.83,-65.891l761.355,-7.167l1176.87,16.858l951.755,2.525l890.075,-8.146l1498.79,-13.683l0,449.688l-7996.83,-0l-0,-166.646Z" style="fill:#9fc1a5;fill-rule:nonzero;"/><path id="prefix__패스_2682" d="M568.358,1512.4l0,-377.604l-182.125,5.133l-383.058,205.825l-0,166.667l565.183,-0" style="fill:#9fb0c4;fill-rule:nonzero;"/><path id="prefix__패스_2683" d="M124.296,1511.83l299.492,-373.612l-17.351,0.833l-310.487,372.779l66.546,0" style="fill:#f9f0ef;fill-rule:nonzero;"/><path id="prefix__패스_2684" d="M441.542,1512.4l104.096,-377.117l-21.746,0.734l-105.154,376.383l22.804,-0" style="fill:#f9f0ef;fill-rule:nonzero;"/><path id="prefix__패스_2685" d="M740.221,1512.72l-105.558,-382.409l21.341,-0.57l106.946,382.654" style="fill:#f9f0ef;fill-rule:nonzero;"/><path id="prefix__패스_2686" d="M3495.58,1512.4l1227.38,-430.304l-27.854,0.325l-1252.3,429.979" style="fill:#f9f0ef;fill-rule:nonzero;"/><rect id="prefix__사각형_1370" x="4642.76" y="1039.12" width="11.892" height="50.742" style="fill:#c8cacc;fill-rule:nonzero;"/><path id="prefix__패스_2687" d="M5266.54,974.475l-14.08,0l-47.416,67.117l11.975,-0l49.52,-67.117" style="fill:#bababa;fill-rule:nonzero;"/><path id="prefix__패스_2688" d="M5216.88,1040.93l49.521,-67.116l5.7,-0l-0,60.275l-17.083,-0l-0,9.529l-10.509,-0l0,14.008l-11.158,0l-0,11.25l-10.263,0l0,11.808l-6.208,0l0,-39.745" style="fill:#e8e9ea;fill-rule:nonzero;"/><path id="prefix__사각형_1371" d="M5205.53,1091.36l0.133,-50.825l11.892,0.031l-0.133,50.825l-11.892,-0.031Z" style="fill:#bababa;fill-rule:nonzero;"/><g id="prefix__그룹_2351"><g id="prefix__그룹_2350"><clipPath id="_clip25"><path d="M3740.16,1322.29l0,-148.971l1037.36,-30.138l-0,149.054l-1037.36,30.054Z"/></clipPath><g clip-path="url(#_clip25)"><path id="prefix__패스_2689" d="M4258.83,1298.75c-302.671,8.796 -505.887,-19.467 -505.887,-51.313c-0,-31.845 203.212,-71.92 505.887,-80.716c302.675,-8.796 506.05,19.466 506.05,51.312c0,31.846 -203.625,71.921 -506.05,80.717m0,-140.5c-254.941,7.413 -518.675,42.917 -518.675,89.583c0,46.667 263.75,66.871 518.675,59.459c254.925,-7.413 518.675,-42.842 518.675,-89.584c0,-46.741 -263.654,-66.87 -518.675,-59.458" style="fill:#f9f0ef;fill-rule:nonzero;"/></g></g></g><path id="prefix__패스_2691" d="M1986.92,1131.67l-0.65,-0l-51.312,-5.375c-1.716,-0.177 -3.282,-1.063 -4.317,-2.442c-1.067,-1.391 -1.536,-3.15 -1.304,-4.887l24.925,-160.213c0.48,-3.078 3.156,-5.371 6.271,-5.375l20.037,0l0,-0.487c0,-3.486 2.868,-6.355 6.354,-6.355l413.604,0c3.486,0 6.355,2.869 6.355,6.355l-0,166.725c-0.005,1.902 -0.876,3.702 -2.363,4.887c-1.467,1.23 -3.425,1.713 -5.296,1.304l-58.971,-11.892c-3.396,-0.692 -5.654,-4.011 -5.05,-7.425l27.854,-147.262l-369.783,-0l0,166.158c0,3.486 -2.868,6.354 -6.354,6.354l0,-0.07Zm-43.983,-17.43l37.629,3.992l-0,-152.233l-14.583,-0l-23.046,148.241Zm406.358,-11.666l45.288,9.121l-0,-152.538l-18.163,0l-27.125,143.417Z" style="fill:#f9f0ef;fill-rule:nonzero;"/><path id="prefix__패스_2692" d="M1935.98,1125.48c-0.054,0.001 -0.108,0.002 -0.163,0.002c-3.485,0 -6.354,-2.868 -6.354,-6.354c0,-3.486 2.869,-6.354 6.354,-6.354c0.055,-0 0.109,0 0.163,0.002l405.867,-12.217c0.136,-0.009 0.272,-0.013 0.408,-0.013c3.351,-0 6.108,2.757 6.108,6.108c0,0.004 0,0.009 0,0.014c0.004,0.082 0.005,0.164 0.005,0.246c0,3.395 -2.721,6.221 -6.113,6.349l-405.867,12.217l-0.408,0Z" style="fill:#f9f0ef;fill-rule:nonzero;"/><path id="prefix__패스_2693" d="M1962.1,968.129c-2.86,-0.015 -5.375,-1.96 -6.108,-4.725c-0.192,-0.618 -0.29,-1.262 -0.29,-1.91c-0,-2.934 2.008,-5.515 4.852,-6.236l26.309,-6.841c0.552,-0.153 1.122,-0.23 1.695,-0.23c3.491,-0 6.363,2.872 6.363,6.362c-0,2.903 -1.986,5.455 -4.8,6.168l-26.392,6.925l-1.629,0.487Z" style="fill:#f9f0ef;fill-rule:nonzero;"/><path id="prefix__패스_2694" d="M718.654,973.267l-332.416,41.783l-0,132.358l332.416,-4.308l0,-169.833Z" style="fill:#e8dbda;fill-rule:nonzero;"/><path id="prefix__패스_2695" d="M5275.48,839.108l749.75,0l606.888,7.329l602.733,7.413l302.671,0.083l462.475,12.95l-0,28.021l-811.25,-2.116l-492.775,-1.305l-587.917,-1.466l-558.671,-1.467l-192.712,-0.488l-0,-31.604l-81.192,0l0,-17.35" style="fill:#f9f0ef;fill-rule:nonzero;"/><path id="prefix__패스_2696" d="M3735.63,752.004l8.225,9.121l364.246,25.658l0,-6.612l-372.471,-28.167Z" style="fill:#8399aa;fill-rule:nonzero;"/><path id="prefix__패스_2697" d="M7999.1,984.163l0,86.175l-2825.83,10.416l-0,-25.575l20.445,0l0.001,-21.421l23.212,0l0,-22.887l24.517,-0.163l813.121,-5.212l97.083,-2.038l1847.45,-19.295Z" style="fill:#e8e9ea;fill-rule:nonzero;"/><path id="prefix__패스_2698" d="M5194.6,1056.04l0,-21.421l2805.42,-15.475l-0,24.925l-2805.42,11.971Z" style="fill:#d9dadb;fill-rule:nonzero;"/><path id="prefix__패스_2699" d="M8000,961.642l0,35.187l-2777.71,15.963l-0,-21.342l28.333,-0.325l398.7,-4.317l2350.68,-25.166Z" style="fill:#d9dadb;fill-rule:nonzero;"/><path id="prefix__패스_2700" d="M8000,933.417l0,28.671l-2374.93,25.166l-402.771,4.317l-0,-16.208l2777.7,-41.946Z" style="fill:#e8e9ea;fill-rule:nonzero;"/><rect id="prefix__사각형_1372" x="4885.27" y="880.458" width="117.046" height="82.346" style="fill:#d1d1d1;fill-rule:nonzero;"/><path id="prefix__사각형_1373" d="M4692.88,956.558l0,99.775l0,-99.775Z" style="fill:#d9dadb;"/></g></svg>