<svg xmlns="http://www.w3.org/2000/svg" width="24" height="24" viewBox="0 0 24 24">
  <path id="패스_2917" data-name="패스 2917" d="M307.318,288.231l-1.8-6.074a1.855,1.855,0,0,0-1.778-1.327H287.73a1.849,1.849,0,0,0-1.778,1.327l-1.81,6.074-.412,1.961V292.1a1.859,1.859,0,0,0,1.856,1.857h.758v9.892a.98.98,0,1,0,1.961,0v-9.892h.562v2.491a.98.98,0,1,0,1.961,0v-2.491h9.8v2.491a.98.98,0,1,0,1.961,0v-2.491h.562v9.892a.98.98,0,1,0,1.961,0v-9.892h.765a1.852,1.852,0,0,0,1.85-1.85v-1.916Zm-19.386-5.439h15.588l1.791,5.439h-19.17ZM305.769,292H285.691v-1.8h20.078Z" transform="translate(-283.73 -280.83)" fill="#e83c77"/>
</svg>
