<svg xmlns="http://www.w3.org/2000/svg" width="24" height="24" viewBox="0 0 24 24">
  <g id="패스_1099" data-name="패스 1099" transform="translate(-611.027 -151.46)" fill="none" stroke-linecap="round" stroke-linejoin="round">
    <path d="M635.027,160.061v6.791a1.181,1.181,0,0,1-1.18,1.181H627.6v6.246a1.181,1.181,0,0,1-1.18,1.181h-6.789a1.181,1.181,0,0,1-1.18-1.181v-6.246h-6.244a1.181,1.181,0,0,1-1.181-1.181v-6.791a1.181,1.181,0,0,1,1.181-1.181h6.244v-6.24a1.181,1.181,0,0,1,1.18-1.181h6.789a1.181,1.181,0,0,1,1.18,1.181v6.24h6.244A1.181,1.181,0,0,1,635.027,160.061Z" stroke="none"/>
    <path d="M 621.1519165039063 154.1600189208984 L 621.1519165039063 158.88037109375 C 621.1519165039063 160.3715362548828 619.9430541992188 161.5803680419922 618.451904296875 161.5803680419922 L 613.7269897460938 161.5803680419922 L 613.7269897460938 165.3332061767578 L 618.451904296875 165.3332061767578 C 619.9430541992188 165.3332061767578 621.1519165039063 166.5420379638672 621.1519165039063 168.033203125 L 621.1519165039063 172.7600250244141 L 624.9021606445313 172.7600250244141 L 624.9021606445313 168.033203125 C 624.9021606445313 166.5420379638672 626.1110229492188 165.3332061767578 627.6021728515625 165.3332061767578 L 632.3269653320313 165.3332061767578 L 632.3269653320313 161.5803680419922 L 627.6021728515625 161.5803680419922 C 626.1110229492188 161.5803680419922 624.9021606445313 160.3715362548828 624.9021606445313 158.88037109375 L 624.9021606445313 154.1600189208984 L 621.1519165039063 154.1600189208984 M 619.6322021484375 151.4600219726563 L 626.4216918945313 151.4600219726563 C 627.0733642578125 151.4600219726563 627.6021728515625 151.9889221191406 627.6021728515625 152.6407470703125 L 627.6021728515625 158.88037109375 L 633.8464965820313 158.88037109375 C 634.4981689453125 158.88037109375 635.0269775390625 159.4092407226563 635.0269775390625 160.0610656738281 L 635.0269775390625 166.8524475097656 C 635.0269775390625 167.5042724609375 634.4981689453125 168.033203125 633.8464965820313 168.033203125 L 627.6021728515625 168.033203125 L 627.6021728515625 174.2793273925781 C 627.6021728515625 174.9311218261719 627.0733642578125 175.4600219726563 626.4216918945313 175.4600219726563 L 619.6322021484375 175.4600219726563 C 618.9805908203125 175.4600219726563 618.451904296875 174.9311218261719 618.451904296875 174.2793273925781 L 618.451904296875 168.033203125 L 612.20751953125 168.033203125 C 611.5556640625 168.033203125 611.0269775390625 167.5042724609375 611.0269775390625 166.8524475097656 L 611.0269775390625 160.0610656738281 C 611.0269775390625 159.4092407226563 611.5556640625 158.88037109375 612.20751953125 158.88037109375 L 618.451904296875 158.88037109375 L 618.451904296875 152.6407470703125 C 618.451904296875 151.9889221191406 618.9805908203125 151.4600219726563 619.6322021484375 151.4600219726563 Z" stroke="none" fill="#d1d1d1"/>
  </g>
</svg>
